<?xml version="1.0" encoding="utf-8"?>
<svg viewBox="0 0 1240.5 190" xmlns="http://www.w3.org/2000/svg">
  <defs>
    <radialGradient id="gradient-1" gradientUnits="userSpaceOnUse" cx="152.286" cy="126.898" r="330" gradientTransform="matrix(0.638467, -1.091841, 1.097297, 0.641658, 52.727183, 218.434182)">
      <stop offset="0" style="stop-color: rgb(0, 170, 237);"/>
      <stop offset="1" style="stop-color: rgb(0, 145, 202);"/>
    </radialGradient>
    <linearGradient id="gradient-0" gradientUnits="userSpaceOnUse" x1="330" y1="0" x2="330" y2="660" gradientTransform="matrix(0.980745, -0.195296, 0.195753, 0.983035, -58.663244, 70.697931)">
      <stop offset="0" style="stop-color: rgb(152, 226, 255);"/>
      <stop offset="1" style="stop-color: rgb(78, 193, 239);"/>
    </linearGradient>
  </defs>
  <g transform="matrix(0.276515, 0, 0, 0.276515, 3.981949, 3.750038)">
    <g>
      <circle style="fill: url(#gradient-1); stroke: url(#gradient-0); stroke-width: 20px;" cx="330" cy="330" r="330"/>
      <g transform="matrix(1, 0, 0, 1, 76.243515, 77.183487)">
        <circle style="fill: rgb(255, 255, 255); stroke: rgb(152, 226, 255); stroke-width: 20px;" cx="254.358" cy="253.337" r="75"/>
        <circle style="fill: rgb(212, 243, 255); stroke: rgb(99, 211, 255); stroke-width: 20px;" cx="215.084" cy="54.739" r="57.5"/>
        <circle style="stroke: rgb(78, 193, 239); fill: rgb(179, 233, 255); stroke-width: 20px;" cx="63.26" cy="186.66" r="42.5"/>
        <circle style="stroke: rgb(78, 193, 239); fill: rgb(179, 233, 255); stroke-width: 20px;" cx="405.584" cy="120.172" r="42.5"/>
        <circle style="stroke: rgb(78, 193, 239); fill: rgb(179, 233, 255); stroke-width: 20px;" cx="444.253" cy="318.582" r="42.5"/>
        <circle style="stroke: rgb(78, 193, 239); fill: rgb(179, 233, 255); stroke-width: 20px;" cx="101.614" cy="385.13" r="42.5"/>
        <circle style="fill: rgb(212, 243, 255); stroke: rgb(99, 211, 255); stroke-width: 20px;" cx="291.529" cy="450.894" r="57.5"/>
      </g>
    </g>
  </g>
  <g transform="matrix(1, 0, 0, 1, -593.328857, -6.388477)">
    <g transform="matrix(0.393846, 0, 0, 0.393846, 1203.162842, -328.900482)">
      <style> path { fill: #848688; } </style>
      <path d="M -834.494 1105.523 L -834.494 1112.214 L -981.377 1112.214 C -981.045 1137.934 -977.76 1158.323 -971.506 1173.366 C -965.247 1188.414 -956.288 1199.175 -944.636 1205.648 C -932.982 1212.131 -918.032 1215.359 -899.792 1215.359 C -885.079 1215.359 -867.139 1212.226 -845.994 1205.976 L -845.994 1221.134 C -864.415 1227.085 -882.654 1230.062 -900.71 1230.062 C -922.476 1230.062 -940.532 1226.007 -954.864 1217.923 C -969.156 1209.783 -980.021 1196.575 -987.439 1178.295 C -994.914 1159.959 -998.653 1135.707 -998.653 1105.523 C -998.653 1061.738 -991.123 1030.081 -976.087 1010.58 C -961.048 991.115 -940.572 981.385 -914.67 981.385 C -888.91 981.385 -869.094 990.944 -855.225 1010.051 C -841.401 1029.169 -834.494 1060.987 -834.494 1105.523 Z M -914.67 996.08 C -934.984 996.08 -951.008 1003.675 -962.754 1018.847 C -974.519 1034.029 -980.718 1060.229 -981.377 1097.449 L -851.771 1097.449 C -852.099 1071.86 -854.888 1051.604 -860.164 1036.692 C -865.432 1021.818 -872.597 1011.348 -881.668 1005.259 C -890.693 999.138 -901.688 996.08 -914.67 996.08 Z M -725.094 981.385 C -707.658 981.385 -693.184 983.786 -681.658 988.598 C -670.139 993.449 -661.375 1001.509 -655.356 1012.744 C -649.392 1023.986 -646.397 1038.966 -646.397 1057.69 L -646.397 1226.051 L -660.782 1226.051 L -662.187 1198.829 L -664.168 1198.829 C -671.977 1208.932 -681.561 1216.582 -692.939 1221.792 C -704.32 1226.992 -716.96 1229.6 -730.879 1229.6 C -744.459 1229.6 -756.381 1227.197 -766.625 1222.382 C -776.828 1217.52 -784.779 1210.378 -790.462 1200.92 C -796.152 1191.474 -798.987 1180.06 -798.987 1166.675 C -798.987 1146.122 -792.501 1130.108 -779.532 1118.644 C -766.599 1107.186 -746.858 1100.123 -720.299 1097.449 L -662.686 1091.215 L -662.686 1057.292 C -662.686 1041.63 -665.086 1029.346 -669.88 1020.42 C -674.677 1011.491 -681.616 1005.214 -690.68 1001.59 C -699.705 997.914 -711.341 996.08 -725.585 996.08 C -734.377 996.08 -744.04 996.936 -754.565 998.632 C -765.142 1000.342 -775.63 1002.922 -786.021 1006.382 L -786.021 991.162 C -777.556 988.187 -767.752 985.802 -756.618 984.004 C -745.525 982.251 -735.018 981.385 -725.094 981.385 Z M -729.392 1214.903 C -716.939 1214.903 -704.853 1211.925 -693.152 1205.976 C -681.496 1200.027 -671.339 1190.214 -662.686 1176.513 L -662.686 1106.185 L -720.787 1112.214 C -741.429 1114.141 -756.662 1119.451 -766.486 1128.163 C -776.309 1136.868 -781.225 1149.105 -781.225 1164.904 C -781.225 1181.698 -776.777 1194.232 -767.899 1202.498 C -759.013 1210.771 -746.175 1214.903 -729.392 1214.903 Z M -537.447 1230.062 C -555.828 1230.062 -573.899 1227.241 -591.672 1221.592 L -591.672 1206.441 C -581.148 1209.532 -571.599 1211.797 -563.041 1213.196 C -554.443 1214.637 -545.911 1215.359 -537.447 1215.359 C -516.818 1215.359 -500.848 1211.014 -489.567 1202.308 C -478.291 1193.597 -472.642 1181.13 -472.642 1164.904 C -472.642 1150.729 -476.216 1139.858 -483.364 1132.294 C -490.465 1124.685 -501.462 1118.86 -516.366 1114.844 L -538.432 1109.069 C -559.354 1103.429 -574.182 1095.537 -582.923 1085.385 C -591.634 1075.272 -595.97 1062.167 -595.97 1046.078 C -595.97 1033.607 -592.784 1022.503 -586.386 1012.744 C -579.992 1002.989 -570.641 995.314 -558.325 989.719 C -546.006 984.158 -531.36 981.385 -514.382 981.385 C -498.418 981.385 -482.899 983.003 -467.848 986.232 L -467.848 1001.462 C -476.365 999.536 -484.165 998.163 -491.259 997.32 C -498.418 996.494 -506.123 996.08 -514.382 996.08 C -528.636 996.08 -540.598 998.245 -550.28 1002.578 C -559.97 1006.904 -567.201 1012.744 -571.998 1020.093 C -576.791 1027.447 -579.192 1035.819 -579.192 1045.228 C -579.192 1058 -575.807 1068.192 -569.042 1075.797 C -562.225 1083.363 -551.531 1089.098 -536.956 1092.986 L -514.882 1098.763 C -492.984 1104.586 -477.678 1112.738 -468.975 1123.241 C -460.234 1133.735 -455.859 1147.317 -455.859 1163.986 C -455.859 1184.799 -462.985 1201.039 -477.226 1212.675 C -491.478 1224.27 -511.548 1230.062 -537.447 1230.062 Z M -339.972 1211.098 L -258.172 984.922 L -239.909 984.922 L -364.718 1324.278 L -381.998 1324.278 L -345.475 1226.051 L -351.253 1226.051 L -440.032 984.922 L -421.843 984.922 L -339.972 1211.098 Z"/>
      <path d="M -135.582 1228.749 C -154.108 1228.749 -175.68 1227.544 -200.325 1225.132 L -200.325 898.971 C -174.091 894.51 -149.942 892.277 -127.904 892.277 C -76.514 892.277 -38.247 906.014 -13.11 933.478 C 12.101 960.906 24.694 1003.363 24.694 1060.841 C 24.694 1100.123 18.699 1132.123 6.704 1156.831 C -5.278 1181.553 -23.062 1199.697 -46.668 1211.289 C -70.262 1222.925 -99.91 1228.749 -135.582 1228.749 Z M -131.215 1205.063 C -102.446 1205.063 -78.772 1200.27 -60.211 1190.691 C -41.634 1181.06 -27.723 1165.693 -18.463 1144.562 C -9.192 1123.432 -4.572 1095.537 -4.572 1060.841 C -4.572 1026.463 -8.959 998.619 -17.756 977.315 C -26.539 956.057 -39.899 940.457 -57.812 930.532 C -75.722 920.645 -98.754 915.697 -126.919 915.697 C -140.491 915.697 -155.704 916.814 -172.539 919.046 L -172.539 1203.09 C -161.159 1204.398 -147.384 1205.063 -131.215 1205.063 Z M 106.802 1226.051 L 78.952 1226.051 L 78.952 984.269 L 106.802 984.269 L 106.802 1226.051 Z M 92.846 927.585 C 86.312 927.585 81.161 925.889 77.404 922.53 C 73.629 919.158 71.762 914.589 71.762 908.813 C 71.762 902.996 73.629 898.331 77.404 894.837 C 81.161 891.34 86.312 889.591 92.846 889.591 C 99.423 889.591 104.592 891.34 108.355 894.837 C 112.114 898.331 114 902.996 114 908.813 C 114 914.589 112.114 919.158 108.355 922.53 C 104.592 925.889 99.423 927.585 92.846 927.585 Z M 263.957 883.813 C 247.175 883.813 234.692 887.537 226.514 894.966 C 218.334 902.403 214.245 914.302 214.245 930.66 L 214.245 984.269 L 283.628 984.269 L 283.628 1006.574 L 214.245 1006.574 L 214.245 1226.051 L 186.666 1226.051 L 186.666 1006.574 L 140.836 1006.574 L 140.836 984.269 L 186.666 984.269 L 186.666 931.315 C 186.666 908.138 193.068 890.567 205.853 878.631 C 218.68 866.737 237.556 860.784 262.474 860.784 C 274.185 860.784 284.101 861.525 292.229 863.013 L 292.229 886.237 C 282.03 884.625 272.606 883.813 263.957 883.813 Z M 397.597 883.813 C 380.821 883.813 368.335 887.537 360.159 894.966 C 351.98 902.403 347.891 914.302 347.891 930.66 L 347.891 984.269 L 417.278 984.269 L 417.278 1006.574 L 347.891 1006.574 L 347.891 1226.051 L 320.314 1226.051 L 320.314 1006.574 L 274.486 1006.574 L 274.486 984.269 L 320.314 984.269 L 320.314 931.315 C 320.314 908.138 326.709 890.567 339.49 878.631 C 352.328 866.737 371.203 860.784 396.12 860.784 C 407.82 860.784 417.747 861.525 425.877 863.013 L 425.877 886.237 C 415.678 884.625 406.252 883.813 397.597 883.813 Z M 443.661 1226.051 L 443.661 984.269 L 467.421 984.269 L 469.535 1017.077 L 471.941 1017.077 C 479.644 1005.48 489.324 996.737 500.987 990.829 C 512.694 984.969 525.241 982.032 538.644 982.032 C 542.35 982.032 547.003 982.418 552.606 983.153 L 552.606 1008.151 C 549.078 1007.716 543.958 1007.498 537.23 1007.498 C 523.975 1007.498 511.321 1010.89 499.294 1017.666 C 487.307 1024.398 478.046 1033.809 471.509 1045.874 L 471.509 1226.051 L 443.661 1226.051 Z M 643.547 980.662 C 662.584 980.662 678.262 983.237 690.58 988.402 C 702.894 993.523 712.208 1001.964 718.506 1013.732 C 724.799 1025.497 727.947 1041.357 727.947 1061.297 L 727.947 1226.051 L 704.474 1226.051 L 702.073 1199.286 L 699.881 1199.286 C 692.364 1209.391 683.058 1217.003 671.966 1222.12 C 660.821 1227.278 648.459 1229.864 634.878 1229.864 C 621.147 1229.864 609.044 1227.325 598.561 1222.249 C 588.078 1217.182 579.94 1209.8 574.159 1200.137 C 568.425 1190.472 565.559 1178.858 565.559 1165.297 C 565.559 1144.041 572.307 1127.526 585.795 1115.759 C 599.341 1103.996 620.081 1096.847 648.06 1094.298 L 700.38 1088.726 L 700.38 1060.386 C 700.38 1045.811 698.193 1034.356 693.82 1025.999 C 689.4 1017.689 682.872 1011.847 674.216 1008.472 C 665.616 1005.116 654.335 1003.426 640.37 1003.426 C 631.438 1003.426 621.665 1004.26 611.041 1005.92 C 600.367 1007.544 589.933 1009.991 579.734 1013.275 L 579.734 990.306 C 588.523 987.335 598.747 984.969 610.403 983.219 C 622.109 981.513 633.159 980.662 643.547 980.662 Z M 641.147 1207.757 C 652.153 1207.757 662.874 1205.144 673.301 1199.944 C 683.691 1194.741 692.708 1186.244 700.38 1174.48 L 700.38 1109.069 L 649.54 1113.991 C 630.643 1115.774 616.681 1120.657 607.658 1128.619 C 598.628 1136.574 594.113 1147.846 594.113 1162.414 C 594.113 1177.582 598.153 1188.938 606.244 1196.469 C 614.286 1203.987 625.919 1207.757 641.147 1207.757 Z M 873.907 1230.323 C 852.608 1230.323 834.89 1226.184 820.735 1217.923 C 806.582 1209.655 795.82 1196.289 788.44 1177.832 C 781.107 1159.367 777.441 1135.178 777.441 1105.262 C 777.441 1075.03 781.504 1050.782 789.633 1032.497 C 797.818 1014.168 809.74 1000.954 825.388 992.86 C 841.092 984.726 860.766 980.662 884.409 980.662 C 899.444 980.662 913.615 982.237 926.928 985.385 L 926.928 1008.811 C 913.301 1005.526 900.322 1003.889 888.006 1003.889 C 868.821 1003.889 853.397 1006.946 841.752 1013.07 C 830.04 1019.154 821.278 1029.491 815.448 1044.106 C 809.613 1058.677 806.701 1078.685 806.701 1104.151 C 806.701 1130.043 809.335 1150.464 814.6 1165.426 C 819.863 1180.385 827.735 1191.032 838.215 1197.387 C 848.707 1203.678 862.193 1206.829 878.691 1206.829 C 893.22 1206.829 909.306 1203.857 926.928 1197.911 L 926.928 1221.397 C 909.306 1227.351 891.625 1230.323 873.907 1230.323 Z M 1056 1206.632 C 1063.519 1206.632 1072.478 1205.519 1082.869 1203.29 L 1082.869 1226.714 C 1072.799 1228.937 1062.253 1230.062 1051.2 1230.062 C 1028.64 1230.062 1011.382 1224.413 999.445 1213.129 C 987.553 1201.798 981.606 1183.78 981.606 1159.064 L 981.606 1006.574 L 935.767 1006.574 L 935.767 984.269 L 981.606 984.269 L 985.912 895.62 L 1009.46 895.62 L 1009.46 984.269 L 1078.781 984.269 L 1078.781 1006.574 L 1009.46 1006.574 L 1009.46 1155.258 C 1009.46 1168.068 1011.133 1178.203 1014.468 1185.641 C 1017.855 1193.07 1022.881 1198.431 1029.555 1201.715 C 1036.276 1205.002 1045.088 1206.632 1056 1206.632 Z M 1145.501 1226.051 L 1117.646 1226.051 L 1117.646 984.269 L 1145.501 984.269 L 1145.501 1226.051 Z M 1131.539 927.585 C 1125.004 927.585 1119.858 925.889 1116.101 922.53 C 1112.34 919.158 1110.46 914.589 1110.46 908.813 C 1110.46 902.996 1112.34 898.331 1116.101 894.837 C 1119.858 891.34 1125.004 889.591 1131.539 889.591 C 1138.119 889.591 1143.293 891.34 1147.052 894.837 C 1150.807 898.331 1152.694 902.996 1152.694 908.813 C 1152.694 914.589 1150.807 919.158 1147.052 922.53 C 1143.293 925.889 1138.119 927.585 1131.539 927.585 Z M 1289.89 1230.323 C 1228.025 1230.323 1197.092 1188.723 1197.092 1105.523 C 1197.092 1061.91 1205.081 1030.198 1221.061 1010.384 C 1237.048 990.563 1259.982 980.662 1289.89 980.662 C 1351.797 980.662 1382.753 1022.191 1382.753 1105.262 C 1382.753 1148.872 1374.768 1180.603 1358.78 1200.464 C 1342.8 1220.364 1319.83 1230.323 1289.89 1230.323 Z M 1289.89 1208.212 C 1303.663 1208.212 1315.232 1205.123 1324.585 1198.959 C 1333.932 1192.742 1341.128 1182.163 1346.157 1167.2 C 1351.233 1152.237 1353.769 1131.902 1353.769 1106.185 C 1353.769 1079.98 1351.213 1059.279 1346.091 1044.106 C 1340.968 1028.935 1333.747 1018.243 1324.445 1012.025 C 1315.184 1005.852 1303.663 1002.771 1289.89 1002.771 C 1276.173 1002.771 1264.615 1005.852 1255.267 1012.025 C 1245.915 1018.243 1238.673 1028.815 1233.541 1043.785 C 1228.43 1058.732 1225.861 1079.018 1225.861 1104.604 C 1225.861 1130.8 1228.43 1151.498 1233.541 1166.675 C 1238.673 1181.851 1245.915 1192.571 1255.267 1198.829 C 1264.615 1205.082 1276.173 1208.212 1289.89 1208.212 Z M 1434.369 1226.051 L 1434.369 984.269 L 1458.14 984.269 L 1460.536 1011.491 L 1462.643 1011.491 C 1471.295 1001.655 1481.618 994.06 1493.605 988.73 C 1505.635 983.352 1518.603 980.662 1532.527 980.662 C 1578.403 980.662 1601.347 1005.441 1601.347 1054.997 L 1601.347 1226.051 L 1573.567 1226.051 L 1573.567 1056.38 C 1573.567 1037.791 1569.476 1024.51 1561.299 1016.548 C 1553.119 1008.546 1541.521 1004.538 1526.538 1004.538 C 1514.825 1004.538 1502.979 1007.414 1490.988 1013.137 C 1479.009 1018.87 1469.417 1027.858 1462.229 1040.104 L 1462.229 1226.051 L 1434.369 1226.051 Z"/>
    </g>
  </g>
</svg>