<?xml version="1.0" encoding="utf-8"?>
<svg viewBox="0 0 1240.5 190" width="1240.5" height="190" xmlns="http://www.w3.org/2000/svg">
  <defs>
    <radialGradient id="gradient-1" gradientUnits="userSpaceOnUse" cx="152.286" cy="126.898" r="330" gradientTransform="matrix(0.638467, -1.091841, 1.097297, 0.641658, 52.727183, 218.434182)">
      <stop offset="0" style="stop-color: rgb(0, 170, 237);"/>
      <stop offset="1" style="stop-color: rgb(0, 145, 202);"/>
    </radialGradient>
    <linearGradient id="gradient-0" gradientUnits="userSpaceOnUse" x1="330" y1="0" x2="330" y2="660" gradientTransform="matrix(0.980745, -0.195296, 0.195753, 0.983035, -58.663244, 70.697931)">
      <stop offset="0" style="stop-color: rgb(152, 226, 255);"/>
      <stop offset="1" style="stop-color: rgb(78, 193, 239);"/>
    </linearGradient>
  </defs>
  <g transform="matrix(0.276515, 0, 0, 0.276515, 3.981949, 3.750038)">
    <g>
      <circle style="fill: url(#gradient-1); stroke: url(#gradient-0); stroke-width: 20px;" cx="330" cy="330" r="330"/>
      <g transform="matrix(1, 0, 0, 1, 76.243515, 77.183487)">
        <circle style="fill: rgb(255, 255, 255); stroke: rgb(152, 226, 255); stroke-width: 20px;" cx="254.358" cy="253.337" r="75"/>
        <circle style="fill: rgb(212, 243, 255); stroke: rgb(99, 211, 255); stroke-width: 20px;" cx="215.084" cy="54.739" r="57.5"/>
        <circle style="stroke: rgb(78, 193, 239); fill: rgb(179, 233, 255); stroke-width: 20px;" cx="63.26" cy="186.66" r="42.5"/>
        <circle style="stroke: rgb(78, 193, 239); fill: rgb(179, 233, 255); stroke-width: 20px;" cx="405.584" cy="120.172" r="42.5"/>
        <circle style="stroke: rgb(78, 193, 239); fill: rgb(179, 233, 255); stroke-width: 20px;" cx="444.253" cy="318.582" r="42.5"/>
        <circle style="stroke: rgb(78, 193, 239); fill: rgb(179, 233, 255); stroke-width: 20px;" cx="101.614" cy="385.13" r="42.5"/>
        <circle style="fill: rgb(212, 243, 255); stroke: rgb(99, 211, 255); stroke-width: 20px;" cx="291.529" cy="450.894" r="57.5"/>
      </g>
    </g>
  </g>
  <path d="M 281.066 118.817 C 282.006 118.817 282.813 119.207 283.486 119.987 C 284.159 120.767 284.496 121.677 284.496 122.717 C 284.496 125.004 282.729 127.237 279.196 129.417 C 271.709 133.89 263.806 136.127 255.486 136.127 C 243.939 136.127 234.839 132.644 228.186 125.677 C 221.526 118.71 218.196 109.144 218.196 96.977 C 218.196 89.177 219.679 82.287 222.646 76.307 C 225.613 70.327 229.773 65.697 235.126 62.417 C 240.479 59.144 246.643 57.507 253.616 57.507 C 263.389 57.507 271.109 60.654 276.776 66.947 C 282.443 73.234 285.276 81.89 285.276 92.917 C 285.276 94.79 284.863 96.167 284.036 97.047 C 283.203 97.934 281.849 98.377 279.976 98.377 L 228.026 98.377 C 228.339 107.944 230.836 115.224 235.516 120.217 C 240.196 125.21 246.799 127.707 255.326 127.707 C 259.799 127.707 263.543 127.107 266.556 125.907 C 269.576 124.714 272.803 123.13 276.236 121.157 C 278.523 119.597 280.133 118.817 281.066 118.817 Z M 253.616 65.307 C 246.336 65.307 240.509 67.594 236.136 72.167 C 231.769 76.747 229.169 83.144 228.336 91.357 L 276.546 91.357 C 276.339 83.037 274.259 76.614 270.306 72.087 C 266.353 67.567 260.789 65.307 253.616 65.307 ZM 335.042 57.507 C 344.195 57.507 351.035 59.897 355.562 64.677 C 360.082 69.464 362.342 76.694 362.342 86.367 L 362.342 130.827 C 362.342 132.28 361.925 133.45 361.092 134.337 C 360.265 135.217 359.122 135.657 357.662 135.657 C 356.209 135.657 355.065 135.217 354.232 134.337 C 353.399 133.45 352.982 132.28 352.982 130.827 L 352.982 121.467 C 350.802 126.147 347.632 129.76 343.472 132.307 C 339.312 134.854 334.525 136.127 329.112 136.127 C 324.225 136.127 319.755 135.14 315.702 133.167 C 311.642 131.187 308.442 128.43 306.102 124.897 C 303.762 121.364 302.592 117.464 302.592 113.197 C 302.592 107.584 304.049 103.217 306.962 100.097 C 309.875 96.977 314.712 94.74 321.472 93.387 C 328.232 92.034 337.645 91.357 349.712 91.357 L 352.982 91.357 L 352.982 85.587 C 352.982 78.72 351.579 73.7 348.772 70.527 C 345.965 67.36 341.545 65.777 335.512 65.777 C 327.819 65.777 320.485 67.804 313.512 71.857 C 313.205 72.064 312.402 72.61 311.102 73.497 C 309.802 74.377 308.682 74.817 307.742 74.817 C 306.702 74.817 305.845 74.427 305.172 73.647 C 304.492 72.867 304.152 71.907 304.152 70.767 C 304.152 68.48 305.972 66.244 309.612 64.057 C 313.252 61.977 317.309 60.364 321.782 59.217 C 326.255 58.077 330.675 57.507 335.042 57.507 Z M 329.892 127.857 C 336.652 127.857 342.192 125.57 346.512 120.997 C 350.825 116.424 352.982 110.6 352.982 103.527 L 352.982 98.377 L 350.022 98.377 C 340.035 98.377 332.392 98.794 327.092 99.627 C 321.785 100.46 318.039 101.89 315.852 103.917 C 313.672 105.944 312.582 108.88 312.582 112.727 C 312.582 117.094 314.245 120.707 317.572 123.567 C 320.899 126.427 325.005 127.857 329.892 127.857 ZM 411.638 136.127 C 407.271 136.127 402.981 135.53 398.768 134.337 C 394.555 133.137 390.838 131.497 387.618 129.417 C 385.638 128.07 384.258 126.9 383.478 125.907 C 382.698 124.92 382.308 123.804 382.308 122.557 C 382.308 121.517 382.648 120.634 383.328 119.907 C 384.001 119.18 384.808 118.817 385.748 118.817 C 386.681 118.817 388.291 119.597 390.578 121.157 C 393.598 123.13 396.691 124.74 399.858 125.987 C 403.031 127.234 407.011 127.857 411.798 127.857 C 417.931 127.857 422.715 126.74 426.148 124.507 C 429.581 122.274 431.298 119.077 431.298 114.917 C 431.298 112.417 430.675 110.36 429.428 108.747 C 428.175 107.14 426.095 105.737 423.188 104.537 C 420.275 103.344 416.115 102.174 410.708 101.027 C 401.448 98.947 394.868 96.27 390.968 92.997 C 387.068 89.717 385.118 85.324 385.118 79.817 C 385.118 73.157 387.718 67.774 392.918 63.667 C 398.118 59.56 404.878 57.507 413.198 57.507 C 417.258 57.507 421.131 58.027 424.818 59.067 C 428.511 60.107 431.711 61.614 434.418 63.587 C 438.058 66.087 439.878 68.53 439.878 70.917 C 439.878 71.957 439.538 72.867 438.858 73.647 C 438.185 74.427 437.381 74.817 436.448 74.817 C 435.408 74.817 433.795 73.987 431.608 72.327 C 428.801 70.347 426.018 68.76 423.258 67.567 C 420.505 66.374 416.995 65.777 412.728 65.777 C 407.321 65.777 403.008 66.997 399.788 69.437 C 396.561 71.884 394.948 75.187 394.948 79.347 C 394.948 81.74 395.495 83.717 396.588 85.277 C 397.681 86.837 399.551 88.214 402.198 89.407 C 404.851 90.6 408.675 91.77 413.668 92.917 C 420.841 94.584 426.355 96.35 430.208 98.217 C 434.055 100.09 436.808 102.327 438.468 104.927 C 440.135 107.527 440.968 110.857 440.968 114.917 C 440.968 121.257 438.291 126.377 432.938 130.277 C 427.578 134.177 420.478 136.127 411.638 136.127 ZM 515.696 60.627 C 516.523 58.754 517.873 57.817 519.746 57.817 C 520.893 57.817 521.933 58.234 522.866 59.067 C 523.806 59.9 524.276 60.887 524.276 62.027 C 524.276 62.754 524.119 63.43 523.806 64.057 L 479.656 160.937 C 478.823 162.704 477.469 163.587 475.596 163.587 C 474.456 163.587 473.443 163.224 472.556 162.497 C 471.676 161.764 471.236 160.827 471.236 159.687 C 471.236 159.06 471.389 158.437 471.696 157.817 L 482.776 133.637 L 450.796 64.057 C 450.483 63.43 450.326 62.807 450.326 62.187 C 450.326 60.94 450.873 59.874 451.966 58.987 C 453.059 58.1 454.229 57.657 455.476 57.657 C 457.449 57.657 458.803 58.594 459.536 60.467 L 487.616 123.497 L 515.696 60.627 Z" transform="matrix(1, 0, 0, 1, 0, 0)" style="fill: rgb(132, 134, 136); white-space: pre;"/>
  <path d="M 600.24 24.277 C 602.633 24.277 604.56 24.954 606.02 26.307 C 607.473 27.66 608.2 29.48 608.2 31.767 L 608.2 128.177 C 608.2 130.564 607.497 132.434 606.09 133.787 C 604.69 135.14 602.793 135.817 600.4 135.817 C 598.007 135.817 596.11 135.14 594.71 133.787 C 593.303 132.434 592.6 130.564 592.6 128.177 L 592.6 121.937 C 590.313 126.51 586.987 130.02 582.62 132.467 C 578.247 134.907 573.2 136.127 567.48 136.127 C 560.933 136.127 555.083 134.464 549.93 131.137 C 544.783 127.81 540.78 123.13 537.92 117.097 C 535.06 111.064 533.63 104.147 533.63 96.347 C 533.63 88.447 535.06 81.53 537.92 75.597 C 540.78 69.67 544.76 65.097 549.86 61.877 C 554.953 58.65 560.827 57.037 567.48 57.037 C 573.2 57.037 578.22 58.26 582.54 60.707 C 586.853 63.147 590.153 66.604 592.44 71.077 L 592.44 31.457 C 592.44 29.27 593.143 27.527 594.55 26.227 C 595.957 24.927 597.853 24.277 600.24 24.277 Z M 571.23 123.647 C 577.99 123.647 583.24 121.307 586.98 116.627 C 590.727 111.947 592.6 105.29 592.6 96.657 C 592.6 88.03 590.753 81.377 587.06 76.697 C 583.367 72.017 578.09 69.677 571.23 69.677 C 564.363 69.677 559.033 71.99 555.24 76.617 C 551.44 81.244 549.54 87.82 549.54 96.347 C 549.54 104.874 551.467 111.557 555.32 116.397 C 559.167 121.23 564.47 123.647 571.23 123.647 ZM 638.156 135.817 C 635.863 135.817 633.963 135.194 632.456 133.947 C 630.949 132.7 630.196 130.827 630.196 128.327 L 630.196 64.997 C 630.196 62.497 630.949 60.597 632.456 59.297 C 633.963 57.997 635.863 57.347 638.156 57.347 C 640.443 57.347 642.313 57.997 643.766 59.297 C 645.226 60.597 645.956 62.497 645.956 64.997 L 645.956 128.327 C 645.956 130.827 645.226 132.7 643.766 133.947 C 642.313 135.194 640.443 135.817 638.156 135.817 Z M 638.156 42.057 C 635.136 42.057 632.743 41.227 630.976 39.567 C 629.209 37.9 628.326 35.717 628.326 33.017 C 628.326 30.31 629.209 28.15 630.976 26.537 C 632.743 24.924 635.136 24.117 638.156 24.117 C 641.063 24.117 643.426 24.924 645.246 26.537 C 647.066 28.15 647.976 30.31 647.976 33.017 C 647.976 35.717 647.093 37.9 645.326 39.567 C 643.559 41.227 641.169 42.057 638.156 42.057 ZM 703.828 37.067 C 698.628 37.487 694.781 39.127 692.288 41.987 C 689.788 44.847 688.538 49.03 688.538 54.537 L 688.538 58.907 L 703.988 58.907 C 706.168 58.907 707.858 59.454 709.058 60.547 C 710.251 61.64 710.848 63.124 710.848 64.997 C 710.848 66.864 710.251 68.344 709.058 69.437 C 707.858 70.53 706.168 71.077 703.988 71.077 L 688.538 71.077 L 688.538 128.177 C 688.538 130.67 687.785 132.567 686.278 133.867 C 684.771 135.167 682.875 135.817 680.588 135.817 C 678.295 135.817 676.421 135.167 674.968 133.867 C 673.515 132.567 672.788 130.67 672.788 128.177 L 672.788 71.077 L 663.428 71.077 C 661.241 71.077 659.551 70.53 658.358 69.437 C 657.158 68.344 656.558 66.864 656.558 64.997 C 656.558 63.124 657.158 61.64 658.358 60.547 C 659.551 59.454 661.241 58.907 663.428 58.907 L 672.788 58.907 L 672.788 56.877 C 672.788 47.31 675.231 39.797 680.118 34.337 C 685.005 28.877 691.921 25.837 700.868 25.217 L 704.918 24.897 C 708.245 24.69 710.665 25.057 712.178 25.997 C 713.685 26.93 714.438 28.437 714.438 30.517 C 714.438 34.157 712.255 36.237 707.888 36.757 L 703.828 37.067 ZM 756.556 37.067 C 751.356 37.487 747.509 39.127 745.016 41.987 C 742.516 44.847 741.266 49.03 741.266 54.537 L 741.266 58.907 L 756.716 58.907 C 758.896 58.907 760.586 59.454 761.786 60.547 C 762.979 61.64 763.576 63.124 763.576 64.997 C 763.576 66.864 762.979 68.344 761.786 69.437 C 760.586 70.53 758.896 71.077 756.716 71.077 L 741.266 71.077 L 741.266 128.177 C 741.266 130.67 740.513 132.567 739.006 133.867 C 737.499 135.167 735.603 135.817 733.316 135.817 C 731.023 135.817 729.149 135.167 727.696 133.867 C 726.243 132.567 725.516 130.67 725.516 128.177 L 725.516 71.077 L 716.156 71.077 C 713.969 71.077 712.279 70.53 711.086 69.437 C 709.886 68.344 709.286 66.864 709.286 64.997 C 709.286 63.124 709.886 61.64 711.086 60.547 C 712.279 59.454 713.969 58.907 716.156 58.907 L 725.516 58.907 L 725.516 56.877 C 725.516 47.31 727.959 39.797 732.846 34.337 C 737.733 28.877 744.649 25.837 753.596 25.217 L 757.646 24.897 C 760.973 24.69 763.393 25.057 764.906 25.997 C 766.413 26.93 767.166 28.437 767.166 30.517 C 767.166 34.157 764.983 36.237 760.616 36.757 L 756.556 37.067 ZM 813.968 57.347 C 818.955 57.034 821.448 59.167 821.448 63.747 C 821.448 66.034 820.878 67.75 819.738 68.897 C 818.591 70.037 816.615 70.71 813.808 70.917 L 809.128 71.387 C 802.575 72.014 797.711 74.304 794.538 78.257 C 791.371 82.204 789.788 86.987 789.788 92.607 L 789.788 128.327 C 789.788 130.827 789.058 132.7 787.598 133.947 C 786.145 135.194 784.275 135.817 781.988 135.817 C 779.695 135.817 777.795 135.194 776.288 133.947 C 774.781 132.7 774.028 130.827 774.028 128.327 L 774.028 64.837 C 774.028 62.444 774.781 60.597 776.288 59.297 C 777.795 57.997 779.695 57.347 781.988 57.347 C 784.068 57.347 785.808 57.997 787.208 59.297 C 788.615 60.597 789.318 62.39 789.318 64.677 L 789.318 72.167 C 791.398 67.594 794.415 64.11 798.368 61.717 C 802.315 59.324 806.785 57.92 811.778 57.507 L 813.968 57.347 ZM 862.636 57.037 C 872.723 57.037 880.236 59.584 885.176 64.677 C 890.116 69.777 892.586 77.527 892.586 87.927 L 892.586 128.327 C 892.586 130.72 891.909 132.567 890.556 133.867 C 889.209 135.167 887.339 135.817 884.946 135.817 C 882.659 135.817 880.839 135.14 879.486 133.787 C 878.133 132.434 877.456 130.614 877.456 128.327 L 877.456 122.557 C 875.483 126.924 872.546 130.277 868.646 132.617 C 864.746 134.957 860.196 136.127 854.996 136.127 C 850.003 136.127 845.426 135.114 841.266 133.087 C 837.106 131.06 833.856 128.227 831.516 124.587 C 829.176 120.947 828.006 116.89 828.006 112.417 C 828.006 106.904 829.436 102.56 832.296 99.387 C 835.156 96.22 839.886 93.96 846.486 92.607 C 853.093 91.254 862.169 90.577 873.716 90.577 L 877.296 90.577 L 877.296 86.057 C 877.296 80.23 876.103 76.017 873.716 73.417 C 871.323 70.817 867.473 69.517 862.166 69.517 C 858.526 69.517 855.096 69.984 851.876 70.917 C 848.649 71.857 845.113 73.21 841.266 74.977 C 838.459 76.537 836.483 77.317 835.336 77.317 C 833.776 77.317 832.503 76.744 831.516 75.597 C 830.529 74.457 830.036 73.004 830.036 71.237 C 830.036 69.677 830.476 68.297 831.356 67.097 C 832.243 65.904 833.673 64.734 835.646 63.587 C 839.286 61.614 843.549 60.027 848.436 58.827 C 853.329 57.634 858.063 57.037 862.636 57.037 Z M 857.796 124.427 C 863.516 124.427 868.196 122.477 871.836 118.577 C 875.476 114.677 877.296 109.66 877.296 103.527 L 877.296 99.467 L 874.496 99.467 C 866.383 99.467 860.143 99.83 855.776 100.557 C 851.403 101.29 848.283 102.514 846.416 104.227 C 844.543 105.94 843.606 108.41 843.606 111.637 C 843.606 115.384 844.956 118.45 847.656 120.837 C 850.363 123.23 853.743 124.427 857.796 124.427 ZM 946.716 136.127 C 939.336 136.127 932.863 134.517 927.296 131.297 C 921.736 128.07 917.419 123.494 914.346 117.567 C 911.279 111.64 909.746 104.777 909.746 96.977 C 909.746 89.07 911.333 82.1 914.506 76.067 C 917.679 70.034 922.126 65.354 927.846 62.027 C 933.566 58.7 940.116 57.037 947.496 57.037 C 951.449 57.037 955.429 57.61 959.436 58.757 C 963.436 59.897 966.996 61.457 970.116 63.437 C 973.449 65.724 975.116 68.374 975.116 71.387 C 975.116 73.154 974.646 74.637 973.706 75.837 C 972.773 77.03 971.576 77.627 970.116 77.627 C 969.183 77.627 968.249 77.394 967.316 76.927 C 966.376 76.46 965.179 75.757 963.726 74.817 C 961.126 73.157 958.706 71.884 956.466 70.997 C 954.233 70.117 951.556 69.677 948.436 69.677 C 941.363 69.677 935.876 72.067 931.976 76.847 C 928.076 81.634 926.126 88.29 926.126 96.817 C 926.126 105.344 928.049 111.92 931.896 116.547 C 935.749 121.18 941.209 123.497 948.276 123.497 C 951.396 123.497 954.153 123.027 956.546 122.087 C 958.939 121.154 961.383 119.907 963.876 118.347 C 965.023 117.62 966.169 116.997 967.316 116.477 C 968.456 115.957 969.496 115.697 970.436 115.697 C 971.889 115.697 973.083 116.294 974.016 117.487 C 974.956 118.68 975.426 120.164 975.426 121.937 C 975.426 123.39 975.036 124.714 974.256 125.907 C 973.476 127.107 972.149 128.33 970.276 129.577 C 967.156 131.657 963.516 133.27 959.356 134.417 C 955.196 135.557 950.983 136.127 946.716 136.127 ZM 1027.056 123.807 C 1029.349 124.014 1030.989 124.61 1031.976 125.597 C 1032.963 126.584 1033.456 127.964 1033.456 129.737 C 1033.456 131.817 1032.649 133.4 1031.036 134.487 C 1029.423 135.58 1027.056 136.024 1023.936 135.817 L 1019.726 135.507 C 1011.306 134.88 1005.016 132.307 1000.856 127.787 C 996.696 123.26 994.616 116.577 994.616 107.737 L 994.616 71.077 L 985.256 71.077 C 980.676 71.077 978.386 69.05 978.386 64.997 C 978.386 63.124 978.986 61.64 980.186 60.547 C 981.379 59.454 983.069 58.907 985.256 58.907 L 994.616 58.907 L 994.616 42.837 C 994.616 40.45 995.316 38.58 996.716 37.227 C 998.123 35.874 1000.023 35.197 1002.416 35.197 C 1004.803 35.197 1006.726 35.874 1008.186 37.227 C 1009.639 38.58 1010.366 40.45 1010.366 42.837 L 1010.366 58.907 L 1025.816 58.907 C 1027.996 58.907 1029.686 59.454 1030.886 60.547 C 1032.079 61.64 1032.676 63.124 1032.676 64.997 C 1032.676 66.97 1032.079 68.477 1030.886 69.517 C 1029.686 70.557 1027.996 71.077 1025.816 71.077 L 1010.366 71.077 L 1010.366 108.827 C 1010.366 113.714 1011.379 117.304 1013.406 119.597 C 1015.439 121.884 1018.536 123.184 1022.696 123.497 L 1027.056 123.807 ZM 1052.804 135.817 C 1050.51 135.817 1048.61 135.194 1047.104 133.947 C 1045.597 132.7 1044.844 130.827 1044.844 128.327 L 1044.844 64.997 C 1044.844 62.497 1045.597 60.597 1047.104 59.297 C 1048.61 57.997 1050.51 57.347 1052.804 57.347 C 1055.09 57.347 1056.96 57.997 1058.414 59.297 C 1059.874 60.597 1060.604 62.497 1060.604 64.997 L 1060.604 128.327 C 1060.604 130.827 1059.874 132.7 1058.414 133.947 C 1056.96 135.194 1055.09 135.817 1052.804 135.817 Z M 1052.804 42.057 C 1049.784 42.057 1047.39 41.227 1045.624 39.567 C 1043.857 37.9 1042.974 35.717 1042.974 33.017 C 1042.974 30.31 1043.857 28.15 1045.624 26.537 C 1047.39 24.924 1049.784 24.117 1052.804 24.117 C 1055.71 24.117 1058.074 24.924 1059.894 26.537 C 1061.714 28.15 1062.624 30.31 1062.624 33.017 C 1062.624 35.717 1061.74 37.9 1059.974 39.567 C 1058.207 41.227 1055.817 42.057 1052.804 42.057 ZM 1115.666 136.127 C 1108.179 136.127 1101.603 134.517 1095.936 131.297 C 1090.269 128.07 1085.899 123.467 1082.826 117.487 C 1079.759 111.507 1078.226 104.564 1078.226 96.657 C 1078.226 88.65 1079.759 81.657 1082.826 75.677 C 1085.899 69.697 1090.269 65.097 1095.936 61.877 C 1101.603 58.65 1108.179 57.037 1115.666 57.037 C 1123.153 57.037 1129.733 58.65 1135.406 61.877 C 1141.073 65.097 1145.439 69.697 1148.506 75.677 C 1151.573 81.657 1153.106 88.65 1153.106 96.657 C 1153.106 104.564 1151.573 111.507 1148.506 117.487 C 1145.439 123.467 1141.073 128.07 1135.406 131.297 C 1129.733 134.517 1123.153 136.127 1115.666 136.127 Z M 1115.666 123.647 C 1122.633 123.647 1127.963 121.36 1131.656 116.787 C 1135.349 112.207 1137.196 105.497 1137.196 96.657 C 1137.196 87.924 1135.323 81.244 1131.576 76.617 C 1127.836 71.99 1122.533 69.677 1115.666 69.677 C 1108.806 69.677 1103.503 71.99 1099.756 76.617 C 1096.009 81.244 1094.136 87.924 1094.136 96.657 C 1094.136 105.497 1095.983 112.207 1099.676 116.787 C 1103.369 121.36 1108.699 123.647 1115.666 123.647 ZM 1211.61 57.037 C 1229.81 57.037 1238.91 67.28 1238.91 87.767 L 1238.91 128.327 C 1238.91 130.72 1238.207 132.567 1236.8 133.867 C 1235.4 135.167 1233.45 135.817 1230.95 135.817 C 1228.557 135.817 1226.66 135.14 1225.26 133.787 C 1223.853 132.434 1223.15 130.614 1223.15 128.327 L 1223.15 88.547 C 1223.15 82.1 1221.877 77.37 1219.33 74.357 C 1216.783 71.337 1212.807 69.827 1207.4 69.827 C 1201.053 69.827 1195.957 71.804 1192.11 75.757 C 1188.263 79.71 1186.34 85.014 1186.34 91.667 L 1186.34 128.327 C 1186.34 130.614 1185.637 132.434 1184.23 133.787 C 1182.823 135.14 1180.927 135.817 1178.54 135.817 C 1176.147 135.817 1174.22 135.14 1172.76 133.787 C 1171.307 132.434 1170.58 130.614 1170.58 128.327 L 1170.58 64.837 C 1170.58 62.65 1171.333 60.857 1172.84 59.457 C 1174.347 58.05 1176.247 57.347 1178.54 57.347 C 1180.827 57.347 1182.647 58.024 1184 59.377 C 1185.347 60.73 1186.02 62.497 1186.02 64.677 L 1186.02 71.077 C 1188.52 66.504 1192.007 63.02 1196.48 60.627 C 1200.947 58.234 1205.99 57.037 1211.61 57.037 Z" transform="matrix(1, 0, 0, 1, 0, 0)" style="fill: rgb(132, 134, 136); white-space: pre;"/>
</svg>