<?xml version="1.0" encoding="utf-8"?>
<svg class="main-svg" width="546" height="419" viewBox="0 0 504 333" style="" xmlns="http://www.w3.org/2000/svg">
  <defs id="defs-559138">
    <g class="clips"/>
    <g class="gradients"/>
    <g class="patterns"/>
  </defs>
  <g class="x" transform="matrix(1, 0, 0, 1, -39.999989, -36.167702)">
    <path class="xgrid crisp" transform="translate(117.72,0)" d="M0,40v329" style="stroke-width: 1px; stroke-opacity: 0.5; stroke: rgb(206, 206, 206);"/>
    <path class="xgrid crisp" transform="translate(204.86,0)" d="M0,40v329" style="stroke-width: 1px; stroke-opacity: 0.5; stroke: rgb(206, 206, 206);"/>
    <path class="xgrid crisp" transform="translate(292,0)" d="M0,40v329" style="stroke-width: 1px; stroke-opacity: 0.5; stroke: rgb(206, 206, 206);"/>
    <path class="xgrid crisp" transform="translate(379.14,0)" d="M0,40v329" style="stroke-width: 1px; stroke-opacity: 0.5; stroke: rgb(206, 206, 206);"/>
    <path class="xgrid crisp" transform="translate(466.28,0)" d="M0,40v329" style="stroke-width: 1px; stroke-opacity: 0.5; stroke: rgb(206, 206, 206);"/>
  </g>
  <g class="y" transform="matrix(1, 0, 0, 1, -39.999989, -36.167702)">
    <path class="ygrid crisp" transform="translate(0,362.85)" d="M43,0h498" style="stroke-width: 1px; stroke-opacity: 0.5; stroke: rgb(206, 206, 206);"/>
    <path class="ygrid crisp" transform="translate(0,303.32)" d="M43,0h498" style="stroke-width: 1px; stroke-opacity: 0.5; stroke: rgb(206, 206, 206);"/>
    <path class="ygrid crisp" transform="translate(0,243.79)" d="M43,0h498" style="stroke-width: 1px; stroke-opacity: 0.5; stroke: rgb(206, 206, 206);"/>
    <path class="ygrid crisp" transform="translate(0,184.26)" d="M43,0h498" style="stroke-width: 1px; stroke-opacity: 0.5; stroke: rgb(206, 206, 206);"/>
    <path class="ygrid crisp" transform="translate(0,124.73)" d="M43,0h498" style="stroke-width: 1px; stroke-opacity: 0.5; stroke: rgb(206, 206, 206);"/>
    <path class="ygrid crisp" transform="translate(0,65.2)" d="M43,0h498" style="stroke-width: 1px; stroke-opacity: 0.5; stroke: rgb(206, 206, 206);"/>
  </g>
  <g>
    <path class="xlines-above crisp" d="M 1 332 L 503 332 M 1 1 L 503 1" style="fill: none; stroke-width: 2px; stroke-opacity: 0.5; stroke: rgb(186, 186, 186);"/>
    <path class="ylines-above crisp" d="M 2 2 L 2 331 M 502 2 L 502 331" style="fill: none; stroke-width: 2px; stroke-opacity: 0.5; stroke: rgb(186, 186, 186);"/>
  </g>
  <g class="cartesianlayer" transform="matrix(1, 0, 0, 1, -40, -38)">
    <g class="points" transform="matrix(1, 0, 0, 1, 43, 40)">
      <path class="point" transform="translate(31.15,299.51)" d="M5,0A5,5 0 1,1 0,-5A5,5 0 0,1 5,0Z" style="opacity: 1; stroke-width: 0px; fill-opacity: 1; fill: rgb(78, 135, 175);"/>
      <path class="point" transform="translate(33.33,299.99)" d="M5,0A5,5 0 1,1 0,-5A5,5 0 0,1 5,0Z" style="opacity: 1; stroke-width: 0px; fill-opacity: 1; fill: rgb(78, 135, 175);"/>
      <path class="point" transform="translate(35.51,299.28)" d="M5,0A5,5 0 1,1 0,-5A5,5 0 0,1 5,0Z" style="opacity: 1; stroke-width: 0px; fill-opacity: 1; fill: rgb(78, 135, 175);"/>
      <path class="point" transform="translate(37.69,300.59)" d="M5,0A5,5 0 1,1 0,-5A5,5 0 0,1 5,0Z" style="opacity: 1; stroke-width: 0px; fill-opacity: 1; fill: rgb(78, 135, 175);"/>
      <path class="point" transform="translate(39.86,299.16)" d="M5,0A5,5 0 1,1 0,-5A5,5 0 0,1 5,0Z" style="opacity: 1; stroke-width: 0px; fill-opacity: 1; fill: rgb(78, 135, 175);"/>
      <path class="point" transform="translate(42.04,299.87)" d="M5,0A5,5 0 1,1 0,-5A5,5 0 0,1 5,0Z" style="opacity: 1; stroke-width: 0px; fill-opacity: 1; fill: rgb(78, 135, 175);"/>
      <path class="point" transform="translate(44.22,301.89)" d="M5,0A5,5 0 1,1 0,-5A5,5 0 0,1 5,0Z" style="opacity: 1; stroke-width: 0px; fill-opacity: 1; fill: rgb(78, 135, 175);"/>
      <path class="point" transform="translate(46.4,301.89)" d="M5,0A5,5 0 1,1 0,-5A5,5 0 0,1 5,0Z" style="opacity: 1; stroke-width: 0px; fill-opacity: 1; fill: rgb(78, 135, 175);"/>
      <path class="point" transform="translate(48.58,303.44)" d="M5,0A5,5 0 1,1 0,-5A5,5 0 0,1 5,0Z" style="opacity: 1; stroke-width: 0px; fill-opacity: 1; fill: rgb(78, 135, 175);"/>
      <path class="point" transform="translate(50.76,304.4)" d="M5,0A5,5 0 1,1 0,-5A5,5 0 0,1 5,0Z" style="opacity: 1; stroke-width: 0px; fill-opacity: 1; fill: rgb(78, 135, 175);"/>
      <path class="point" transform="translate(52.93,304.51)" d="M5,0A5,5 0 1,1 0,-5A5,5 0 0,1 5,0Z" style="opacity: 1; stroke-width: 0px; fill-opacity: 1; fill: rgb(78, 135, 175);"/>
      <path class="point" transform="translate(55.11,303.8)" d="M5,0A5,5 0 1,1 0,-5A5,5 0 0,1 5,0Z" style="opacity: 1; stroke-width: 0px; fill-opacity: 1; fill: rgb(78, 135, 175);"/>
      <path class="point" transform="translate(57.29,305.47)" d="M5,0A5,5 0 1,1 0,-5A5,5 0 0,1 5,0Z" style="opacity: 1; stroke-width: 0px; fill-opacity: 1; fill: rgb(78, 135, 175);"/>
      <path class="point" transform="translate(59.47,305.11)" d="M5,0A5,5 0 1,1 0,-5A5,5 0 0,1 5,0Z" style="opacity: 1; stroke-width: 0px; fill-opacity: 1; fill: rgb(78, 135, 175);"/>
      <path class="point" transform="translate(61.65,304.87)" d="M5,0A5,5 0 1,1 0,-5A5,5 0 0,1 5,0Z" style="opacity: 1; stroke-width: 0px; fill-opacity: 1; fill: rgb(78, 135, 175);"/>
      <path class="point" transform="translate(63.83,305.47)" d="M5,0A5,5 0 1,1 0,-5A5,5 0 0,1 5,0Z" style="opacity: 1; stroke-width: 0px; fill-opacity: 1; fill: rgb(78, 135, 175);"/>
      <path class="point" transform="translate(66.01,305.23)" d="M5,0A5,5 0 1,1 0,-5A5,5 0 0,1 5,0Z" style="opacity: 1; stroke-width: 0px; fill-opacity: 1; fill: rgb(78, 135, 175);"/>
      <path class="point" transform="translate(68.18,304.99)" d="M5,0A5,5 0 1,1 0,-5A5,5 0 0,1 5,0Z" style="opacity: 1; stroke-width: 0px; fill-opacity: 1; fill: rgb(78, 135, 175);"/>
      <path class="point" transform="translate(70.36,306.3)" d="M5,0A5,5 0 1,1 0,-5A5,5 0 0,1 5,0Z" style="opacity: 1; stroke-width: 0px; fill-opacity: 1; fill: rgb(78, 135, 175);"/>
      <path class="point" transform="translate(72.54,304.75)" d="M5,0A5,5 0 1,1 0,-5A5,5 0 0,1 5,0Z" style="opacity: 1; stroke-width: 0px; fill-opacity: 1; fill: rgb(78, 135, 175);"/>
      <path class="point" transform="translate(74.72,305.23)" d="M5,0A5,5 0 1,1 0,-5A5,5 0 0,1 5,0Z" style="opacity: 1; stroke-width: 0px; fill-opacity: 1; fill: rgb(78, 135, 175);"/>
      <path class="point" transform="translate(76.9,305.47)" d="M5,0A5,5 0 1,1 0,-5A5,5 0 0,1 5,0Z" style="opacity: 1; stroke-width: 0px; fill-opacity: 1; fill: rgb(78, 135, 175);"/>
      <path class="point" transform="translate(79.08,305.94)" d="M5,0A5,5 0 1,1 0,-5A5,5 0 0,1 5,0Z" style="opacity: 1; stroke-width: 0px; fill-opacity: 1; fill: rgb(78, 135, 175);"/>
      <path class="point" transform="translate(81.26,304.63)" d="M5,0A5,5 0 1,1 0,-5A5,5 0 0,1 5,0Z" style="opacity: 1; stroke-width: 0px; fill-opacity: 1; fill: rgb(78, 135, 175);"/>
      <path class="point" transform="translate(83.43,304.28)" d="M5,0A5,5 0 1,1 0,-5A5,5 0 0,1 5,0Z" style="opacity: 1; stroke-width: 0px; fill-opacity: 1; fill: rgb(78, 135, 175);"/>
      <path class="point" transform="translate(85.61,304.4)" d="M5,0A5,5 0 1,1 0,-5A5,5 0 0,1 5,0Z" style="opacity: 1; stroke-width: 0px; fill-opacity: 1; fill: rgb(78, 135, 175);"/>
      <path class="point" transform="translate(87.79,303.8)" d="M5,0A5,5 0 1,1 0,-5A5,5 0 0,1 5,0Z" style="opacity: 1; stroke-width: 0px; fill-opacity: 1; fill: rgb(78, 135, 175);"/>
      <path class="point" transform="translate(89.97,302.97)" d="M5,0A5,5 0 1,1 0,-5A5,5 0 0,1 5,0Z" style="opacity: 1; stroke-width: 0px; fill-opacity: 1; fill: rgb(78, 135, 175);"/>
      <path class="point" transform="translate(92.15,302.01)" d="M5,0A5,5 0 1,1 0,-5A5,5 0 0,1 5,0Z" style="opacity: 1; stroke-width: 0px; fill-opacity: 1; fill: rgb(78, 135, 175);"/>
      <path class="point" transform="translate(94.33,300.59)" d="M5,0A5,5 0 1,1 0,-5A5,5 0 0,1 5,0Z" style="opacity: 1; stroke-width: 0px; fill-opacity: 1; fill: rgb(78, 135, 175);"/>
      <path class="point" transform="translate(96.51,298.68)" d="M5,0A5,5 0 1,1 0,-5A5,5 0 0,1 5,0Z" style="opacity: 1; stroke-width: 0px; fill-opacity: 1; fill: rgb(78, 135, 175);"/>
      <path class="point" transform="translate(98.68,298.32)" d="M5,0A5,5 0 1,1 0,-5A5,5 0 0,1 5,0Z" style="opacity: 1; stroke-width: 0px; fill-opacity: 1; fill: rgb(78, 135, 175);"/>
      <path class="point" transform="translate(100.86,297.37)" d="M5,0A5,5 0 1,1 0,-5A5,5 0 0,1 5,0Z" style="opacity: 1; stroke-width: 0px; fill-opacity: 1; fill: rgb(78, 135, 175);"/>
      <path class="point" transform="translate(103.04,296.18)" d="M5,0A5,5 0 1,1 0,-5A5,5 0 0,1 5,0Z" style="opacity: 1; stroke-width: 0px; fill-opacity: 1; fill: rgb(78, 135, 175);"/>
      <path class="point" transform="translate(105.22,297.85)" d="M5,0A5,5 0 1,1 0,-5A5,5 0 0,1 5,0Z" style="opacity: 1; stroke-width: 0px; fill-opacity: 1; fill: rgb(78, 135, 175);"/>
      <path class="point" transform="translate(107.4,297.73)" d="M5,0A5,5 0 1,1 0,-5A5,5 0 0,1 5,0Z" style="opacity: 1; stroke-width: 0px; fill-opacity: 1; fill: rgb(78, 135, 175);"/>
      <path class="point" transform="translate(109.58,298.56)" d="M5,0A5,5 0 1,1 0,-5A5,5 0 0,1 5,0Z" style="opacity: 1; stroke-width: 0px; fill-opacity: 1; fill: rgb(78, 135, 175);"/>
      <path class="point" transform="translate(111.75,299.04)" d="M5,0A5,5 0 1,1 0,-5A5,5 0 0,1 5,0Z" style="opacity: 1; stroke-width: 0px; fill-opacity: 1; fill: rgb(78, 135, 175);"/>
      <path class="point" transform="translate(113.93,299.63)" d="M5,0A5,5 0 1,1 0,-5A5,5 0 0,1 5,0Z" style="opacity: 1; stroke-width: 0px; fill-opacity: 1; fill: rgb(78, 135, 175);"/>
      <path class="point" transform="translate(116.11,296.78)" d="M5,0A5,5 0 1,1 0,-5A5,5 0 0,1 5,0Z" style="opacity: 1; stroke-width: 0px; fill-opacity: 1; fill: rgb(78, 135, 175);"/>
      <path class="point" transform="translate(118.29,294.27)" d="M5,0A5,5 0 1,1 0,-5A5,5 0 0,1 5,0Z" style="opacity: 1; stroke-width: 0px; fill-opacity: 1; fill: rgb(78, 135, 175);"/>
      <path class="point" transform="translate(120.47,291.77)" d="M5,0A5,5 0 1,1 0,-5A5,5 0 0,1 5,0Z" style="opacity: 1; stroke-width: 0px; fill-opacity: 1; fill: rgb(78, 135, 175);"/>
      <path class="point" transform="translate(122.65,285.23)" d="M5,0A5,5 0 1,1 0,-5A5,5 0 0,1 5,0Z" style="opacity: 1; stroke-width: 0px; fill-opacity: 1; fill: rgb(78, 135, 175);"/>
      <path class="point" transform="translate(124.83,277.01)" d="M5,0A5,5 0 1,1 0,-5A5,5 0 0,1 5,0Z" style="opacity: 1; stroke-width: 0px; fill-opacity: 1; fill: rgb(78, 135, 175);"/>
      <path class="point" transform="translate(127,268.56)" d="M5,0A5,5 0 1,1 0,-5A5,5 0 0,1 5,0Z" style="opacity: 1; stroke-width: 0px; fill-opacity: 1; fill: rgb(78, 135, 175);"/>
      <path class="point" transform="translate(129.18,259.87)" d="M5,0A5,5 0 1,1 0,-5A5,5 0 0,1 5,0Z" style="opacity: 1; stroke-width: 0px; fill-opacity: 1; fill: rgb(78, 135, 175);"/>
      <path class="point" transform="translate(131.36,254.99)" d="M5,0A5,5 0 1,1 0,-5A5,5 0 0,1 5,0Z" style="opacity: 1; stroke-width: 0px; fill-opacity: 1; fill: rgb(78, 135, 175);"/>
      <path class="point" transform="translate(133.54,255.1)" d="M5,0A5,5 0 1,1 0,-5A5,5 0 0,1 5,0Z" style="opacity: 1; stroke-width: 0px; fill-opacity: 1; fill: rgb(78, 135, 175);"/>
      <path class="point" transform="translate(135.72,256.65)" d="M5,0A5,5 0 1,1 0,-5A5,5 0 0,1 5,0Z" style="opacity: 1; stroke-width: 0px; fill-opacity: 1; fill: rgb(78, 135, 175);"/>
      <path class="point" transform="translate(137.9,262.61)" d="M5,0A5,5 0 1,1 0,-5A5,5 0 0,1 5,0Z" style="opacity: 1; stroke-width: 0px; fill-opacity: 1; fill: rgb(78, 135, 175);"/>
      <path class="point" transform="translate(140.08,268.92)" d="M5,0A5,5 0 1,1 0,-5A5,5 0 0,1 5,0Z" style="opacity: 1; stroke-width: 0px; fill-opacity: 1; fill: rgb(78, 135, 175);"/>
      <path class="point" transform="translate(142.25,273.32)" d="M5,0A5,5 0 1,1 0,-5A5,5 0 0,1 5,0Z" style="opacity: 1; stroke-width: 0px; fill-opacity: 1; fill: rgb(78, 135, 175);"/>
      <path class="point" transform="translate(144.43,276.42)" d="M5,0A5,5 0 1,1 0,-5A5,5 0 0,1 5,0Z" style="opacity: 1; stroke-width: 0px; fill-opacity: 1; fill: rgb(78, 135, 175);"/>
      <path class="point" transform="translate(146.61,274.27)" d="M5,0A5,5 0 1,1 0,-5A5,5 0 0,1 5,0Z" style="opacity: 1; stroke-width: 0px; fill-opacity: 1; fill: rgb(78, 135, 175);"/>
      <path class="point" transform="translate(148.79,269.63)" d="M5,0A5,5 0 1,1 0,-5A5,5 0 0,1 5,0Z" style="opacity: 1; stroke-width: 0px; fill-opacity: 1; fill: rgb(78, 135, 175);"/>
      <path class="point" transform="translate(150.97,259.87)" d="M5,0A5,5 0 1,1 0,-5A5,5 0 0,1 5,0Z" style="opacity: 1; stroke-width: 0px; fill-opacity: 1; fill: rgb(78, 135, 175);"/>
      <path class="point" transform="translate(153.15,249.98)" d="M5,0A5,5 0 1,1 0,-5A5,5 0 0,1 5,0Z" style="opacity: 1; stroke-width: 0px; fill-opacity: 1; fill: rgb(78, 135, 175);"/>
      <path class="point" transform="translate(155.32,237.25)" d="M5,0A5,5 0 1,1 0,-5A5,5 0 0,1 5,0Z" style="opacity: 1; stroke-width: 0px; fill-opacity: 1; fill: rgb(78, 135, 175);"/>
      <path class="point" transform="translate(157.5,230.34)" d="M5,0A5,5 0 1,1 0,-5A5,5 0 0,1 5,0Z" style="opacity: 1; stroke-width: 0px; fill-opacity: 1; fill: rgb(78, 135, 175);"/>
      <path class="point" transform="translate(159.68,228.44)" d="M5,0A5,5 0 1,1 0,-5A5,5 0 0,1 5,0Z" style="opacity: 1; stroke-width: 0px; fill-opacity: 1; fill: rgb(78, 135, 175);"/>
      <path class="point" transform="translate(161.86,233.91)" d="M5,0A5,5 0 1,1 0,-5A5,5 0 0,1 5,0Z" style="opacity: 1; stroke-width: 0px; fill-opacity: 1; fill: rgb(78, 135, 175);"/>
      <path class="point" transform="translate(164.04,244.87)" d="M5,0A5,5 0 1,1 0,-5A5,5 0 0,1 5,0Z" style="opacity: 1; stroke-width: 0px; fill-opacity: 1; fill: rgb(78, 135, 175);"/>
      <path class="point" transform="translate(166.22,257.84)" d="M5,0A5,5 0 1,1 0,-5A5,5 0 0,1 5,0Z" style="opacity: 1; stroke-width: 0px; fill-opacity: 1; fill: rgb(78, 135, 175);"/>
      <path class="point" transform="translate(168.4,270.58)" d="M5,0A5,5 0 1,1 0,-5A5,5 0 0,1 5,0Z" style="opacity: 1; stroke-width: 0px; fill-opacity: 1; fill: rgb(78, 135, 175);"/>
      <path class="point" transform="translate(170.57,280.82)" d="M5,0A5,5 0 1,1 0,-5A5,5 0 0,1 5,0Z" style="opacity: 1; stroke-width: 0px; fill-opacity: 1; fill: rgb(78, 135, 175);"/>
      <path class="point" transform="translate(172.75,288.44)" d="M5,0A5,5 0 1,1 0,-5A5,5 0 0,1 5,0Z" style="opacity: 1; stroke-width: 0px; fill-opacity: 1; fill: rgb(78, 135, 175);"/>
      <path class="point" transform="translate(174.93,293.8)" d="M5,0A5,5 0 1,1 0,-5A5,5 0 0,1 5,0Z" style="opacity: 1; stroke-width: 0px; fill-opacity: 1; fill: rgb(78, 135, 175);"/>
      <path class="point" transform="translate(177.11,296.3)" d="M5,0A5,5 0 1,1 0,-5A5,5 0 0,1 5,0Z" style="opacity: 1; stroke-width: 0px; fill-opacity: 1; fill: rgb(78, 135, 175);"/>
      <path class="point" transform="translate(179.29,297.25)" d="M5,0A5,5 0 1,1 0,-5A5,5 0 0,1 5,0Z" style="opacity: 1; stroke-width: 0px; fill-opacity: 1; fill: rgb(78, 135, 175);"/>
      <path class="point" transform="translate(181.47,296.78)" d="M5,0A5,5 0 1,1 0,-5A5,5 0 0,1 5,0Z" style="opacity: 1; stroke-width: 0px; fill-opacity: 1; fill: rgb(78, 135, 175);"/>
      <path class="point" transform="translate(183.65,298.44)" d="M5,0A5,5 0 1,1 0,-5A5,5 0 0,1 5,0Z" style="opacity: 1; stroke-width: 0px; fill-opacity: 1; fill: rgb(78, 135, 175);"/>
      <path class="point" transform="translate(185.82,299.04)" d="M5,0A5,5 0 1,1 0,-5A5,5 0 0,1 5,0Z" style="opacity: 1; stroke-width: 0px; fill-opacity: 1; fill: rgb(78, 135, 175);"/>
      <path class="point" transform="translate(188,300.11)" d="M5,0A5,5 0 1,1 0,-5A5,5 0 0,1 5,0Z" style="opacity: 1; stroke-width: 0px; fill-opacity: 1; fill: rgb(78, 135, 175);"/>
      <path class="point" transform="translate(190.18,302.37)" d="M5,0A5,5 0 1,1 0,-5A5,5 0 0,1 5,0Z" style="opacity: 1; stroke-width: 0px; fill-opacity: 1; fill: rgb(78, 135, 175);"/>
      <path class="point" transform="translate(192.36,302.25)" d="M5,0A5,5 0 1,1 0,-5A5,5 0 0,1 5,0Z" style="opacity: 1; stroke-width: 0px; fill-opacity: 1; fill: rgb(78, 135, 175);"/>
      <path class="point" transform="translate(194.54,303.2)" d="M5,0A5,5 0 1,1 0,-5A5,5 0 0,1 5,0Z" style="opacity: 1; stroke-width: 0px; fill-opacity: 1; fill: rgb(78, 135, 175);"/>
      <path class="point" transform="translate(196.72,304.75)" d="M5,0A5,5 0 1,1 0,-5A5,5 0 0,1 5,0Z" style="opacity: 1; stroke-width: 0px; fill-opacity: 1; fill: rgb(78, 135, 175);"/>
      <path class="point" transform="translate(198.89,304.87)" d="M5,0A5,5 0 1,1 0,-5A5,5 0 0,1 5,0Z" style="opacity: 1; stroke-width: 0px; fill-opacity: 1; fill: rgb(78, 135, 175);"/>
      <path class="point" transform="translate(201.07,305.35)" d="M5,0A5,5 0 1,1 0,-5A5,5 0 0,1 5,0Z" style="opacity: 1; stroke-width: 0px; fill-opacity: 1; fill: rgb(78, 135, 175);"/>
      <path class="point" transform="translate(203.25,304.99)" d="M5,0A5,5 0 1,1 0,-5A5,5 0 0,1 5,0Z" style="opacity: 1; stroke-width: 0px; fill-opacity: 1; fill: rgb(78, 135, 175);"/>
      <path class="point" transform="translate(205.43,304.28)" d="M5,0A5,5 0 1,1 0,-5A5,5 0 0,1 5,0Z" style="opacity: 1; stroke-width: 0px; fill-opacity: 1; fill: rgb(78, 135, 175);"/>
      <path class="point" transform="translate(207.61,305.59)" d="M5,0A5,5 0 1,1 0,-5A5,5 0 0,1 5,0Z" style="opacity: 1; stroke-width: 0px; fill-opacity: 1; fill: rgb(78, 135, 175);"/>
      <path class="point" transform="translate(209.79,305.11)" d="M5,0A5,5 0 1,1 0,-5A5,5 0 0,1 5,0Z" style="opacity: 1; stroke-width: 0px; fill-opacity: 1; fill: rgb(78, 135, 175);"/>
      <path class="point" transform="translate(211.97,305.11)" d="M5,0A5,5 0 1,1 0,-5A5,5 0 0,1 5,0Z" style="opacity: 1; stroke-width: 0px; fill-opacity: 1; fill: rgb(78, 135, 175);"/>
      <path class="point" transform="translate(214.14,305.47)" d="M5,0A5,5 0 1,1 0,-5A5,5 0 0,1 5,0Z" style="opacity: 1; stroke-width: 0px; fill-opacity: 1; fill: rgb(78, 135, 175);"/>
      <path class="point" transform="translate(216.32,305.47)" d="M5,0A5,5 0 1,1 0,-5A5,5 0 0,1 5,0Z" style="opacity: 1; stroke-width: 0px; fill-opacity: 1; fill: rgb(78, 135, 175);"/>
      <path class="point" transform="translate(218.5,306.06)" d="M5,0A5,5 0 1,1 0,-5A5,5 0 0,1 5,0Z" style="opacity: 1; stroke-width: 0px; fill-opacity: 1; fill: rgb(78, 135, 175);"/>
      <path class="point" transform="translate(220.68,305.59)" d="M5,0A5,5 0 1,1 0,-5A5,5 0 0,1 5,0Z" style="opacity: 1; stroke-width: 0px; fill-opacity: 1; fill: rgb(78, 135, 175);"/>
      <path class="point" transform="translate(222.86,305.11)" d="M5,0A5,5 0 1,1 0,-5A5,5 0 0,1 5,0Z" style="opacity: 1; stroke-width: 0px; fill-opacity: 1; fill: rgb(78, 135, 175);"/>
      <path class="point" transform="translate(225.04,305.47)" d="M5,0A5,5 0 1,1 0,-5A5,5 0 0,1 5,0Z" style="opacity: 1; stroke-width: 0px; fill-opacity: 1; fill: rgb(78, 135, 175);"/>
      <path class="point" transform="translate(227.22,304.87)" d="M5,0A5,5 0 1,1 0,-5A5,5 0 0,1 5,0Z" style="opacity: 1; stroke-width: 0px; fill-opacity: 1; fill: rgb(78, 135, 175);"/>
      <path class="point" transform="translate(229.39,305.11)" d="M5,0A5,5 0 1,1 0,-5A5,5 0 0,1 5,0Z" style="opacity: 1; stroke-width: 0px; fill-opacity: 1; fill: rgb(78, 135, 175);"/>
      <path class="point" transform="translate(231.57,304.63)" d="M5,0A5,5 0 1,1 0,-5A5,5 0 0,1 5,0Z" style="opacity: 1; stroke-width: 0px; fill-opacity: 1; fill: rgb(78, 135, 175);"/>
      <path class="point" transform="translate(233.75,305.11)" d="M5,0A5,5 0 1,1 0,-5A5,5 0 0,1 5,0Z" style="opacity: 1; stroke-width: 0px; fill-opacity: 1; fill: rgb(78, 135, 175);"/>
      <path class="point" transform="translate(235.93,305.7)" d="M5,0A5,5 0 1,1 0,-5A5,5 0 0,1 5,0Z" style="opacity: 1; stroke-width: 0px; fill-opacity: 1; fill: rgb(78, 135, 175);"/>
      <path class="point" transform="translate(238.11,304.28)" d="M5,0A5,5 0 1,1 0,-5A5,5 0 0,1 5,0Z" style="opacity: 1; stroke-width: 0px; fill-opacity: 1; fill: rgb(78, 135, 175);"/>
      <path class="point" transform="translate(240.29,304.99)" d="M5,0A5,5 0 1,1 0,-5A5,5 0 0,1 5,0Z" style="opacity: 1; stroke-width: 0px; fill-opacity: 1; fill: rgb(78, 135, 175);"/>
      <path class="point" transform="translate(242.46,304.75)" d="M5,0A5,5 0 1,1 0,-5A5,5 0 0,1 5,0Z" style="opacity: 1; stroke-width: 0px; fill-opacity: 1; fill: rgb(78, 135, 175);"/>
      <path class="point" transform="translate(244.64,304.16)" d="M5,0A5,5 0 1,1 0,-5A5,5 0 0,1 5,0Z" style="opacity: 1; stroke-width: 0px; fill-opacity: 1; fill: rgb(78, 135, 175);"/>
      <path class="point" transform="translate(246.82,304.51)" d="M5,0A5,5 0 1,1 0,-5A5,5 0 0,1 5,0Z" style="opacity: 1; stroke-width: 0px; fill-opacity: 1; fill: rgb(78, 135, 175);"/>
      <path class="point" transform="translate(249,305.59)" d="M5,0A5,5 0 1,1 0,-5A5,5 0 0,1 5,0Z" style="opacity: 1; stroke-width: 0px; fill-opacity: 1; fill: rgb(78, 135, 175);"/>
      <path class="point" transform="translate(251.18,304.04)" d="M5,0A5,5 0 1,1 0,-5A5,5 0 0,1 5,0Z" style="opacity: 1; stroke-width: 0px; fill-opacity: 1; fill: rgb(78, 135, 175);"/>
      <path class="point" transform="translate(253.36,303.56)" d="M5,0A5,5 0 1,1 0,-5A5,5 0 0,1 5,0Z" style="opacity: 1; stroke-width: 0px; fill-opacity: 1; fill: rgb(78, 135, 175);"/>
      <path class="point" transform="translate(255.54,304.04)" d="M5,0A5,5 0 1,1 0,-5A5,5 0 0,1 5,0Z" style="opacity: 1; stroke-width: 0px; fill-opacity: 1; fill: rgb(78, 135, 175);"/>
      <path class="point" transform="translate(257.71,302.85)" d="M5,0A5,5 0 1,1 0,-5A5,5 0 0,1 5,0Z" style="opacity: 1; stroke-width: 0px; fill-opacity: 1; fill: rgb(78, 135, 175);"/>
      <path class="point" transform="translate(259.89,301.89)" d="M5,0A5,5 0 1,1 0,-5A5,5 0 0,1 5,0Z" style="opacity: 1; stroke-width: 0px; fill-opacity: 1; fill: rgb(78, 135, 175);"/>
      <path class="point" transform="translate(262.07,299.87)" d="M5,0A5,5 0 1,1 0,-5A5,5 0 0,1 5,0Z" style="opacity: 1; stroke-width: 0px; fill-opacity: 1; fill: rgb(78, 135, 175);"/>
      <path class="point" transform="translate(264.25,297.61)" d="M5,0A5,5 0 1,1 0,-5A5,5 0 0,1 5,0Z" style="opacity: 1; stroke-width: 0px; fill-opacity: 1; fill: rgb(78, 135, 175);"/>
      <path class="point" transform="translate(266.43,294.99)" d="M5,0A5,5 0 1,1 0,-5A5,5 0 0,1 5,0Z" style="opacity: 1; stroke-width: 0px; fill-opacity: 1; fill: rgb(78, 135, 175);"/>
      <path class="point" transform="translate(268.61,290.11)" d="M5,0A5,5 0 1,1 0,-5A5,5 0 0,1 5,0Z" style="opacity: 1; stroke-width: 0px; fill-opacity: 1; fill: rgb(78, 135, 175);"/>
      <path class="point" transform="translate(270.79,283.44)" d="M5,0A5,5 0 1,1 0,-5A5,5 0 0,1 5,0Z" style="opacity: 1; stroke-width: 0px; fill-opacity: 1; fill: rgb(78, 135, 175);"/>
      <path class="point" transform="translate(272.96,276.54)" d="M5,0A5,5 0 1,1 0,-5A5,5 0 0,1 5,0Z" style="opacity: 1; stroke-width: 0px; fill-opacity: 1; fill: rgb(78, 135, 175);"/>
      <path class="point" transform="translate(275.14,265.94)" d="M5,0A5,5 0 1,1 0,-5A5,5 0 0,1 5,0Z" style="opacity: 1; stroke-width: 0px; fill-opacity: 1; fill: rgb(78, 135, 175);"/>
      <path class="point" transform="translate(277.32,258.08)" d="M5,0A5,5 0 1,1 0,-5A5,5 0 0,1 5,0Z" style="opacity: 1; stroke-width: 0px; fill-opacity: 1; fill: rgb(78, 135, 175);"/>
      <path class="point" transform="translate(279.5,250.46)" d="M5,0A5,5 0 1,1 0,-5A5,5 0 0,1 5,0Z" style="opacity: 1; stroke-width: 0px; fill-opacity: 1; fill: rgb(78, 135, 175);"/>
      <path class="point" transform="translate(281.68,245.46)" d="M5,0A5,5 0 1,1 0,-5A5,5 0 0,1 5,0Z" style="opacity: 1; stroke-width: 0px; fill-opacity: 1; fill: rgb(78, 135, 175);"/>
      <path class="point" transform="translate(283.86,240.46)" d="M5,0A5,5 0 1,1 0,-5A5,5 0 0,1 5,0Z" style="opacity: 1; stroke-width: 0px; fill-opacity: 1; fill: rgb(78, 135, 175);"/>
      <path class="point" transform="translate(286.03,237.25)" d="M5,0A5,5 0 1,1 0,-5A5,5 0 0,1 5,0Z" style="opacity: 1; stroke-width: 0px; fill-opacity: 1; fill: rgb(78, 135, 175);"/>
      <path class="point" transform="translate(288.21,228.44)" d="M5,0A5,5 0 1,1 0,-5A5,5 0 0,1 5,0Z" style="opacity: 1; stroke-width: 0px; fill-opacity: 1; fill: rgb(78, 135, 175);"/>
      <path class="point" transform="translate(290.39,213.2)" d="M5,0A5,5 0 1,1 0,-5A5,5 0 0,1 5,0Z" style="opacity: 1; stroke-width: 0px; fill-opacity: 1; fill: rgb(78, 135, 175);"/>
      <path class="point" transform="translate(292.57,189.15)" d="M5,0A5,5 0 1,1 0,-5A5,5 0 0,1 5,0Z" style="opacity: 1; stroke-width: 0px; fill-opacity: 1; fill: rgb(78, 135, 175);"/>
      <path class="point" transform="translate(294.75,152.36)" d="M5,0A5,5 0 1,1 0,-5A5,5 0 0,1 5,0Z" style="opacity: 1; stroke-width: 0px; fill-opacity: 1; fill: rgb(78, 135, 175);"/>
      <path class="point" transform="translate(296.93,110.45)" d="M5,0A5,5 0 1,1 0,-5A5,5 0 0,1 5,0Z" style="opacity: 1; stroke-width: 0px; fill-opacity: 1; fill: rgb(78, 135, 175);"/>
      <path class="point" transform="translate(299.11,63.54)" d="M5,0A5,5 0 1,1 0,-5A5,5 0 0,1 5,0Z" style="opacity: 1; stroke-width: 0px; fill-opacity: 1; fill: rgb(78, 135, 175);"/>
      <path class="point" transform="translate(301.28,31.87)" d="M5,0A5,5 0 1,1 0,-5A5,5 0 0,1 5,0Z" style="opacity: 1; stroke-width: 0px; fill-opacity: 1; fill: rgb(78, 135, 175);"/>
      <path class="point" transform="translate(303.46,22.7)" d="M5,0A5,5 0 1,1 0,-5A5,5 0 0,1 5,0Z" style="opacity: 1; stroke-width: 0px; fill-opacity: 1; fill: rgb(78, 135, 175);"/>
      <path class="point" transform="translate(305.64,36.03)" d="M5,0A5,5 0 1,1 0,-5A5,5 0 0,1 5,0Z" style="opacity: 1; stroke-width: 0px; fill-opacity: 1; fill: rgb(78, 135, 175);"/>
      <path class="point" transform="translate(307.82,67.7)" d="M5,0A5,5 0 1,1 0,-5A5,5 0 0,1 5,0Z" style="opacity: 1; stroke-width: 0px; fill-opacity: 1; fill: rgb(78, 135, 175);"/>
      <path class="point" transform="translate(310,104.61)" d="M5,0A5,5 0 1,1 0,-5A5,5 0 0,1 5,0Z" style="opacity: 1; stroke-width: 0px; fill-opacity: 1; fill: rgb(78, 135, 175);"/>
      <path class="point" transform="translate(312.18,139.85)" d="M5,0A5,5 0 1,1 0,-5A5,5 0 0,1 5,0Z" style="opacity: 1; stroke-width: 0px; fill-opacity: 1; fill: rgb(78, 135, 175);"/>
      <path class="point" transform="translate(314.36,157.59)" d="M5,0A5,5 0 1,1 0,-5A5,5 0 0,1 5,0Z" style="opacity: 1; stroke-width: 0px; fill-opacity: 1; fill: rgb(78, 135, 175);"/>
      <path class="point" transform="translate(316.53,154.14)" d="M5,0A5,5 0 1,1 0,-5A5,5 0 0,1 5,0Z" style="opacity: 1; stroke-width: 0px; fill-opacity: 1; fill: rgb(78, 135, 175);"/>
      <path class="point" transform="translate(318.71,136.4)" d="M5,0A5,5 0 1,1 0,-5A5,5 0 0,1 5,0Z" style="opacity: 1; stroke-width: 0px; fill-opacity: 1; fill: rgb(78, 135, 175);"/>
      <path class="point" transform="translate(320.89,105.45)" d="M5,0A5,5 0 1,1 0,-5A5,5 0 0,1 5,0Z" style="opacity: 1; stroke-width: 0px; fill-opacity: 1; fill: rgb(78, 135, 175);"/>
      <path class="point" transform="translate(323.07,73.3)" d="M5,0A5,5 0 1,1 0,-5A5,5 0 0,1 5,0Z" style="opacity: 1; stroke-width: 0px; fill-opacity: 1; fill: rgb(78, 135, 175);"/>
      <path class="point" transform="translate(325.25,52.94)" d="M5,0A5,5 0 1,1 0,-5A5,5 0 0,1 5,0Z" style="opacity: 1; stroke-width: 0px; fill-opacity: 1; fill: rgb(78, 135, 175);"/>
      <path class="point" transform="translate(327.43,53.42)" d="M5,0A5,5 0 1,1 0,-5A5,5 0 0,1 5,0Z" style="opacity: 1; stroke-width: 0px; fill-opacity: 1; fill: rgb(78, 135, 175);"/>
      <path class="point" transform="translate(329.6,79.25)" d="M5,0A5,5 0 1,1 0,-5A5,5 0 0,1 5,0Z" style="opacity: 1; stroke-width: 0px; fill-opacity: 1; fill: rgb(78, 135, 175);"/>
      <path class="point" transform="translate(331.78,118.54)" d="M5,0A5,5 0 1,1 0,-5A5,5 0 0,1 5,0Z" style="opacity: 1; stroke-width: 0px; fill-opacity: 1; fill: rgb(78, 135, 175);"/>
      <path class="point" transform="translate(333.96,164.62)" d="M5,0A5,5 0 1,1 0,-5A5,5 0 0,1 5,0Z" style="opacity: 1; stroke-width: 0px; fill-opacity: 1; fill: rgb(78, 135, 175);"/>
      <path class="point" transform="translate(336.14,208.08)" d="M5,0A5,5 0 1,1 0,-5A5,5 0 0,1 5,0Z" style="opacity: 1; stroke-width: 0px; fill-opacity: 1; fill: rgb(78, 135, 175);"/>
      <path class="point" transform="translate(338.32,241.06)" d="M5,0A5,5 0 1,1 0,-5A5,5 0 0,1 5,0Z" style="opacity: 1; stroke-width: 0px; fill-opacity: 1; fill: rgb(78, 135, 175);"/>
      <path class="point" transform="translate(340.5,262.13)" d="M5,0A5,5 0 1,1 0,-5A5,5 0 0,1 5,0Z" style="opacity: 1; stroke-width: 0px; fill-opacity: 1; fill: rgb(78, 135, 175);"/>
      <path class="point" transform="translate(342.68,275.94)" d="M5,0A5,5 0 1,1 0,-5A5,5 0 0,1 5,0Z" style="opacity: 1; stroke-width: 0px; fill-opacity: 1; fill: rgb(78, 135, 175);"/>
      <path class="point" transform="translate(344.85,280.94)" d="M5,0A5,5 0 1,1 0,-5A5,5 0 0,1 5,0Z" style="opacity: 1; stroke-width: 0px; fill-opacity: 1; fill: rgb(78, 135, 175);"/>
      <path class="point" transform="translate(347.03,281.77)" d="M5,0A5,5 0 1,1 0,-5A5,5 0 0,1 5,0Z" style="opacity: 1; stroke-width: 0px; fill-opacity: 1; fill: rgb(78, 135, 175);"/>
      <path class="point" transform="translate(349.21,279.15)" d="M5,0A5,5 0 1,1 0,-5A5,5 0 0,1 5,0Z" style="opacity: 1; stroke-width: 0px; fill-opacity: 1; fill: rgb(78, 135, 175);"/>
      <path class="point" transform="translate(351.39,279.63)" d="M5,0A5,5 0 1,1 0,-5A5,5 0 0,1 5,0Z" style="opacity: 1; stroke-width: 0px; fill-opacity: 1; fill: rgb(78, 135, 175);"/>
      <path class="point" transform="translate(353.57,280.58)" d="M5,0A5,5 0 1,1 0,-5A5,5 0 0,1 5,0Z" style="opacity: 1; stroke-width: 0px; fill-opacity: 1; fill: rgb(78, 135, 175);"/>
      <path class="point" transform="translate(355.75,280.82)" d="M5,0A5,5 0 1,1 0,-5A5,5 0 0,1 5,0Z" style="opacity: 1; stroke-width: 0px; fill-opacity: 1; fill: rgb(78, 135, 175);"/>
      <path class="point" transform="translate(357.93,283.92)" d="M5,0A5,5 0 1,1 0,-5A5,5 0 0,1 5,0Z" style="opacity: 1; stroke-width: 0px; fill-opacity: 1; fill: rgb(78, 135, 175);"/>
      <path class="point" transform="translate(360.1,286.77)" d="M5,0A5,5 0 1,1 0,-5A5,5 0 0,1 5,0Z" style="opacity: 1; stroke-width: 0px; fill-opacity: 1; fill: rgb(78, 135, 175);"/>
      <path class="point" transform="translate(362.28,290.82)" d="M5,0A5,5 0 1,1 0,-5A5,5 0 0,1 5,0Z" style="opacity: 1; stroke-width: 0px; fill-opacity: 1; fill: rgb(78, 135, 175);"/>
      <path class="point" transform="translate(364.46,294.39)" d="M5,0A5,5 0 1,1 0,-5A5,5 0 0,1 5,0Z" style="opacity: 1; stroke-width: 0px; fill-opacity: 1; fill: rgb(78, 135, 175);"/>
      <path class="point" transform="translate(366.64,296.18)" d="M5,0A5,5 0 1,1 0,-5A5,5 0 0,1 5,0Z" style="opacity: 1; stroke-width: 0px; fill-opacity: 1; fill: rgb(78, 135, 175);"/>
      <path class="point" transform="translate(368.82,297.37)" d="M5,0A5,5 0 1,1 0,-5A5,5 0 0,1 5,0Z" style="opacity: 1; stroke-width: 0px; fill-opacity: 1; fill: rgb(78, 135, 175);"/>
      <path class="point" transform="translate(371,298.44)" d="M5,0A5,5 0 1,1 0,-5A5,5 0 0,1 5,0Z" style="opacity: 1; stroke-width: 0px; fill-opacity: 1; fill: rgb(78, 135, 175);"/>
      <path class="point" transform="translate(373.17,298.32)" d="M5,0A5,5 0 1,1 0,-5A5,5 0 0,1 5,0Z" style="opacity: 1; stroke-width: 0px; fill-opacity: 1; fill: rgb(78, 135, 175);"/>
      <path class="point" transform="translate(375.35,296.89)" d="M5,0A5,5 0 1,1 0,-5A5,5 0 0,1 5,0Z" style="opacity: 1; stroke-width: 0px; fill-opacity: 1; fill: rgb(78, 135, 175);"/>
      <path class="point" transform="translate(377.53,297.01)" d="M5,0A5,5 0 1,1 0,-5A5,5 0 0,1 5,0Z" style="opacity: 1; stroke-width: 0px; fill-opacity: 1; fill: rgb(78, 135, 175);"/>
      <path class="point" transform="translate(379.71,296.18)" d="M5,0A5,5 0 1,1 0,-5A5,5 0 0,1 5,0Z" style="opacity: 1; stroke-width: 0px; fill-opacity: 1; fill: rgb(78, 135, 175);"/>
      <path class="point" transform="translate(381.89,294.87)" d="M5,0A5,5 0 1,1 0,-5A5,5 0 0,1 5,0Z" style="opacity: 1; stroke-width: 0px; fill-opacity: 1; fill: rgb(78, 135, 175);"/>
      <path class="point" transform="translate(384.07,296.42)" d="M5,0A5,5 0 1,1 0,-5A5,5 0 0,1 5,0Z" style="opacity: 1; stroke-width: 0px; fill-opacity: 1; fill: rgb(78, 135, 175);"/>
      <path class="point" transform="translate(386.25,297.01)" d="M5,0A5,5 0 1,1 0,-5A5,5 0 0,1 5,0Z" style="opacity: 1; stroke-width: 0px; fill-opacity: 1; fill: rgb(78, 135, 175);"/>
      <path class="point" transform="translate(388.42,298.44)" d="M5,0A5,5 0 1,1 0,-5A5,5 0 0,1 5,0Z" style="opacity: 1; stroke-width: 0px; fill-opacity: 1; fill: rgb(78, 135, 175);"/>
      <path class="point" transform="translate(390.6,299.99)" d="M5,0A5,5 0 1,1 0,-5A5,5 0 0,1 5,0Z" style="opacity: 1; stroke-width: 0px; fill-opacity: 1; fill: rgb(78, 135, 175);"/>
      <path class="point" transform="translate(392.78,301.42)" d="M5,0A5,5 0 1,1 0,-5A5,5 0 0,1 5,0Z" style="opacity: 1; stroke-width: 0px; fill-opacity: 1; fill: rgb(78, 135, 175);"/>
      <path class="point" transform="translate(394.96,302.13)" d="M5,0A5,5 0 1,1 0,-5A5,5 0 0,1 5,0Z" style="opacity: 1; stroke-width: 0px; fill-opacity: 1; fill: rgb(78, 135, 175);"/>
      <path class="point" transform="translate(397.14,303.32)" d="M5,0A5,5 0 1,1 0,-5A5,5 0 0,1 5,0Z" style="opacity: 1; stroke-width: 0px; fill-opacity: 1; fill: rgb(78, 135, 175);"/>
      <path class="point" transform="translate(399.32,304.4)" d="M5,0A5,5 0 1,1 0,-5A5,5 0 0,1 5,0Z" style="opacity: 1; stroke-width: 0px; fill-opacity: 1; fill: rgb(78, 135, 175);"/>
      <path class="point" transform="translate(401.5,304.87)" d="M5,0A5,5 0 1,1 0,-5A5,5 0 0,1 5,0Z" style="opacity: 1; stroke-width: 0px; fill-opacity: 1; fill: rgb(78, 135, 175);"/>
      <path class="point" transform="translate(403.67,304.63)" d="M5,0A5,5 0 1,1 0,-5A5,5 0 0,1 5,0Z" style="opacity: 1; stroke-width: 0px; fill-opacity: 1; fill: rgb(78, 135, 175);"/>
      <path class="point" transform="translate(405.85,304.51)" d="M5,0A5,5 0 1,1 0,-5A5,5 0 0,1 5,0Z" style="opacity: 1; stroke-width: 0px; fill-opacity: 1; fill: rgb(78, 135, 175);"/>
      <path class="point" transform="translate(408.03,304.99)" d="M5,0A5,5 0 1,1 0,-5A5,5 0 0,1 5,0Z" style="opacity: 1; stroke-width: 0px; fill-opacity: 1; fill: rgb(78, 135, 175);"/>
      <path class="point" transform="translate(410.21,305.35)" d="M5,0A5,5 0 1,1 0,-5A5,5 0 0,1 5,0Z" style="opacity: 1; stroke-width: 0px; fill-opacity: 1; fill: rgb(78, 135, 175);"/>
      <path class="point" transform="translate(412.39,304.51)" d="M5,0A5,5 0 1,1 0,-5A5,5 0 0,1 5,0Z" style="opacity: 1; stroke-width: 0px; fill-opacity: 1; fill: rgb(78, 135, 175);"/>
      <path class="point" transform="translate(414.57,304.4)" d="M5,0A5,5 0 1,1 0,-5A5,5 0 0,1 5,0Z" style="opacity: 1; stroke-width: 0px; fill-opacity: 1; fill: rgb(78, 135, 175);"/>
      <path class="point" transform="translate(416.74,303.32)" d="M5,0A5,5 0 1,1 0,-5A5,5 0 0,1 5,0Z" style="opacity: 1; stroke-width: 0px; fill-opacity: 1; fill: rgb(78, 135, 175);"/>
      <path class="point" transform="translate(418.92,303.09)" d="M5,0A5,5 0 1,1 0,-5A5,5 0 0,1 5,0Z" style="opacity: 1; stroke-width: 0px; fill-opacity: 1; fill: rgb(78, 135, 175);"/>
      <path class="point" transform="translate(421.1,302.97)" d="M5,0A5,5 0 1,1 0,-5A5,5 0 0,1 5,0Z" style="opacity: 1; stroke-width: 0px; fill-opacity: 1; fill: rgb(78, 135, 175);"/>
      <path class="point" transform="translate(423.28,300.7)" d="M5,0A5,5 0 1,1 0,-5A5,5 0 0,1 5,0Z" style="opacity: 1; stroke-width: 0px; fill-opacity: 1; fill: rgb(78, 135, 175);"/>
      <path class="point" transform="translate(425.46,299.04)" d="M5,0A5,5 0 1,1 0,-5A5,5 0 0,1 5,0Z" style="opacity: 1; stroke-width: 0px; fill-opacity: 1; fill: rgb(78, 135, 175);"/>
      <path class="point" transform="translate(427.64,296.3)" d="M5,0A5,5 0 1,1 0,-5A5,5 0 0,1 5,0Z" style="opacity: 1; stroke-width: 0px; fill-opacity: 1; fill: rgb(78, 135, 175);"/>
      <path class="point" transform="translate(429.82,293.32)" d="M5,0A5,5 0 1,1 0,-5A5,5 0 0,1 5,0Z" style="opacity: 1; stroke-width: 0px; fill-opacity: 1; fill: rgb(78, 135, 175);"/>
      <path class="point" transform="translate(431.99,290.58)" d="M5,0A5,5 0 1,1 0,-5A5,5 0 0,1 5,0Z" style="opacity: 1; stroke-width: 0px; fill-opacity: 1; fill: rgb(78, 135, 175);"/>
      <path class="point" transform="translate(434.17,289.39)" d="M5,0A5,5 0 1,1 0,-5A5,5 0 0,1 5,0Z" style="opacity: 1; stroke-width: 0px; fill-opacity: 1; fill: rgb(78, 135, 175);"/>
      <path class="point" transform="translate(436.35,290.35)" d="M5,0A5,5 0 1,1 0,-5A5,5 0 0,1 5,0Z" style="opacity: 1; stroke-width: 0px; fill-opacity: 1; fill: rgb(78, 135, 175);"/>
      <path class="point" transform="translate(438.53,291.06)" d="M5,0A5,5 0 1,1 0,-5A5,5 0 0,1 5,0Z" style="opacity: 1; stroke-width: 0px; fill-opacity: 1; fill: rgb(78, 135, 175);"/>
      <path class="point" transform="translate(440.71,294.04)" d="M5,0A5,5 0 1,1 0,-5A5,5 0 0,1 5,0Z" style="opacity: 1; stroke-width: 0px; fill-opacity: 1; fill: rgb(78, 135, 175);"/>
      <path class="point" transform="translate(442.89,295.94)" d="M5,0A5,5 0 1,1 0,-5A5,5 0 0,1 5,0Z" style="opacity: 1; stroke-width: 0px; fill-opacity: 1; fill: rgb(78, 135, 175);"/>
      <path class="point" transform="translate(445.07,299.51)" d="M5,0A5,5 0 1,1 0,-5A5,5 0 0,1 5,0Z" style="opacity: 1; stroke-width: 0px; fill-opacity: 1; fill: rgb(78, 135, 175);"/>
      <path class="point" transform="translate(447.24,302.37)" d="M5,0A5,5 0 1,1 0,-5A5,5 0 0,1 5,0Z" style="opacity: 1; stroke-width: 0px; fill-opacity: 1; fill: rgb(78, 135, 175);"/>
      <path class="point" transform="translate(449.42,304.28)" d="M5,0A5,5 0 1,1 0,-5A5,5 0 0,1 5,0Z" style="opacity: 1; stroke-width: 0px; fill-opacity: 1; fill: rgb(78, 135, 175);"/>
      <path class="point" transform="translate(451.6,304.99)" d="M5,0A5,5 0 1,1 0,-5A5,5 0 0,1 5,0Z" style="opacity: 1; stroke-width: 0px; fill-opacity: 1; fill: rgb(78, 135, 175);"/>
      <path class="point" transform="translate(453.78,304.16)" d="M5,0A5,5 0 1,1 0,-5A5,5 0 0,1 5,0Z" style="opacity: 1; stroke-width: 0px; fill-opacity: 1; fill: rgb(78, 135, 175);"/>
      <path class="point" transform="translate(455.96,305.7)" d="M5,0A5,5 0 1,1 0,-5A5,5 0 0,1 5,0Z" style="opacity: 1; stroke-width: 0px; fill-opacity: 1; fill: rgb(78, 135, 175);"/>
      <path class="point" transform="translate(458.14,305.94)" d="M5,0A5,5 0 1,1 0,-5A5,5 0 0,1 5,0Z" style="opacity: 1; stroke-width: 0px; fill-opacity: 1; fill: rgb(78, 135, 175);"/>
      <path class="point" transform="translate(460.31,305.11)" d="M5,0A5,5 0 1,1 0,-5A5,5 0 0,1 5,0Z" style="opacity: 1; stroke-width: 0px; fill-opacity: 1; fill: rgb(78, 135, 175);"/>
      <path class="point" transform="translate(462.49,305.11)" d="M5,0A5,5 0 1,1 0,-5A5,5 0 0,1 5,0Z" style="opacity: 1; stroke-width: 0px; fill-opacity: 1; fill: rgb(78, 135, 175);"/>
      <path class="point" transform="translate(464.67,305.35)" d="M5,0A5,5 0 1,1 0,-5A5,5 0 0,1 5,0Z" style="opacity: 1; stroke-width: 0px; fill-opacity: 1; fill: rgb(78, 135, 175);"/>
      <path class="point" transform="translate(466.85,306.06)" d="M5,0A5,5 0 1,1 0,-5A5,5 0 0,1 5,0Z" style="opacity: 1; stroke-width: 0px; fill-opacity: 1; fill: rgb(78, 135, 175);"/>
    </g>
    <path class="js-line" d="M 74.15 338.32 L 78.51 339.33 L 80.69 339.07 L 85.04 339.81 L 87.22 340.76 L 95.93 344.48 L 98.11 344.96 L 109.01 345.72 L 111.18 345.73 L 128.61 344.92 L 130.79 344.4 L 137.33 341.24 L 139.51 339.78 L 143.86 337.41 L 146.04 337.07 L 150.4 338.35 L 152.58 339.42 L 156.93 339.97 L 159.11 339.01 L 161.29 336.64 L 163.47 332.51 L 167.83 318.51 L 170 309.54 L 174.36 294.35 L 176.54 292.1 L 178.72 294.84 L 180.9 300.73 L 185.25 314.34 L 187.43 317.68 L 189.61 316.96 L 191.79 311.75 L 196.15 290.78 L 198.32 278.87 L 200.5 270.19 L 202.68 267.51 L 204.86 272.31 L 207.04 282.88 L 213.57 319.67 L 215.75 327.57 L 220.11 335.39 L 222.29 336.67 L 231 339.65 L 233.18 340.83 L 239.72 343.66 L 241.89 344.18 L 252.79 344.97 L 254.97 344.99 L 283.29 344.07 L 285.46 343.9 L 300.71 341.63 L 302.89 340.79 L 307.25 337.57 L 309.43 334.58 L 313.79 323.8 L 315.96 315.72 L 322.5 289.93 L 324.68 284.6 L 329.03 281.12 L 331.21 275.47 L 333.39 261.52 L 335.57 236.23 L 339.93 153.54 L 342.11 107.06 L 344.28 71.3 L 346.46 58.7 L 348.64 72.22 L 350.82 106.5 L 355.18 180.58 L 357.36 198.62 L 359.53 197.13 L 361.71 177.4 L 368.25 90.59 L 370.43 91.9 L 372.6 116.47 L 374.78 156.96 L 381.32 275.56 L 383.5 298.11 L 385.68 311.67 L 387.85 318.33 L 390.03 320.42 L 392.21 320.93 L 396.57 318.78 L 398.75 320.11 L 405.28 330.46 L 407.46 333.61 L 411.82 337.33 L 414 337.8 L 418.35 336.58 L 420.53 335.56 L 424.89 334.76 L 427.07 335.7 L 437.96 343.4 L 440.14 344.12 L 448.85 345.13 L 451.03 345.18 L 459.74 344.81 L 461.92 344.31 L 466.28 341.95 L 468.46 339.83 L 477.17 329.3 L 479.35 329.25 L 483.71 333.88 L 485.89 337.06 L 490.24 342.17 L 492.42 343.75 L 498.96 345.71 L 501.14 345.96 L 509.85 346.25" style="vector-effect: non-scaling-stroke; fill: none; stroke-opacity: 1; opacity: 1; stroke-width: 6px; stroke: rgb(255, 167, 91);"/>
  </g>
  <defs id="topdefs-559138">
    <g class="clips"/>
  </defs>
</svg>